<svg width="97" height="32" viewBox="0 0 97 32" fill="none" xmlns="http://www.w3.org/2000/svg">
<rect width="96.3359" height="31.0234" rx="4.89844" fill="#9ECDF6"/>
<path fill-rule="evenodd" clip-rule="evenodd" d="M20.8575 6.38554C20.5767 8.15513 19.5249 9.32063 17.8319 9.73718C16.9947 9.94332 16.9723 9.91801 17.1639 8.97879C17.4239 7.70443 18.2396 6.64017 19.3943 6.0681C20.5201 5.51066 20.9803 5.61038 20.8575 6.38554ZM22.5437 10.4456C24.0656 11.1231 24.483 11.6541 23.8591 12.1179C21.8651 13.6002 21.8934 17.3443 23.9067 18.4009C24.6982 18.8163 24.6882 19.5015 23.8706 20.8387C22.238 23.509 21.175 23.9939 18.6063 23.2392C17.6627 22.962 17.1546 22.9888 15.9893 23.3782C14.1473 23.9936 13.3469 23.7115 12.0616 21.9935C10.4006 19.7732 9.83149 18.1798 9.79852 15.6546C9.76462 13.0547 10.2473 11.9492 11.9017 10.8377C13.0082 10.0943 14.366 9.98876 16.1339 10.5081C17.0672 10.7822 17.5697 10.7566 18.6579 10.3797C20.4557 9.7567 21.018 9.76615 22.5437 10.4456Z" fill="#4097E3"/>
<path d="M38.049 8.60451H38.7378C38.702 8.93458 38.6075 9.22997 38.4544 9.49068C38.3013 9.75138 38.0849 9.95828 37.805 10.1114C37.5252 10.262 37.176 10.3374 36.7574 10.3374C36.4513 10.3374 36.1726 10.28 35.9215 10.1652C35.6727 10.0504 35.4587 9.88772 35.2793 9.67724C35.0999 9.46437 34.9612 9.20964 34.8631 8.91305C34.7674 8.61408 34.7196 8.28161 34.7196 7.91567V7.39545C34.7196 7.0295 34.7674 6.69823 34.8631 6.40165C34.9612 6.10267 35.1011 5.84675 35.2829 5.63387C35.467 5.421 35.6883 5.25716 35.9466 5.14236C36.2049 5.02755 36.4955 4.97015 36.8184 4.97015C37.2131 4.97015 37.5467 5.04429 37.8194 5.19258C38.092 5.34088 38.3037 5.54657 38.4544 5.80967C38.6075 6.07038 38.702 6.37295 38.7378 6.71737H38.049C38.0155 6.4734 37.9533 6.26412 37.8624 6.08952C37.7715 5.91252 37.6424 5.77619 37.475 5.68052C37.3075 5.58484 37.0887 5.53701 36.8184 5.53701C36.5864 5.53701 36.3819 5.58125 36.2049 5.66975C36.0303 5.75825 35.8832 5.88382 35.7636 6.04646C35.6464 6.20911 35.5579 6.40404 35.4981 6.63126C35.4383 6.85848 35.4084 7.11082 35.4084 7.38827V7.91567C35.4084 8.17159 35.4347 8.41197 35.4874 8.6368C35.5424 8.86163 35.6249 9.05895 35.7349 9.22877C35.8449 9.39859 35.9849 9.53253 36.1547 9.6306C36.3245 9.72627 36.5254 9.77411 36.7574 9.77411C37.0516 9.77411 37.286 9.72747 37.4606 9.63419C37.6352 9.5409 37.7668 9.40696 37.8553 9.23236C37.9461 9.05776 38.0107 8.84847 38.049 8.60451ZM40.3021 6.38371V10.2656H39.6384V6.38371H40.3021ZM42.8494 6.38371L41.0089 8.6081H40.0796L39.9792 8.02689H40.7398L42.0421 6.38371H42.8494ZM42.1354 10.2656L40.7075 8.50764L41.1344 8.02689L42.9785 10.2656H42.1354ZM45.8451 9.6019V7.60353C45.8451 7.45046 45.814 7.31771 45.7518 7.2053C45.692 7.09049 45.6012 7.00199 45.4792 6.93981C45.3572 6.87762 45.2065 6.84653 45.0271 6.84653C44.8597 6.84653 44.7126 6.87523 44.5858 6.93263C44.4615 6.99003 44.3634 7.06538 44.2916 7.15866C44.2223 7.25194 44.1876 7.35239 44.1876 7.46003H43.5239C43.5239 7.3213 43.5597 7.18377 43.6315 7.04744C43.7032 6.9111 43.8061 6.78793 43.94 6.6779C44.0764 6.56549 44.239 6.47699 44.428 6.41241C44.6193 6.34544 44.8322 6.31195 45.0666 6.31195C45.3488 6.31195 45.5976 6.35979 45.8128 6.45546C46.0305 6.55114 46.2003 6.69584 46.3223 6.88958C46.4467 7.08092 46.5088 7.3213 46.5088 7.61071V9.41892C46.5088 9.54808 46.5196 9.68561 46.5411 9.83151C46.5651 9.97741 46.5997 10.103 46.6452 10.2082V10.2656H45.9527C45.9193 10.1891 45.893 10.0874 45.8738 9.96067C45.8547 9.83151 45.8451 9.71192 45.8451 9.6019ZM45.9599 7.91208L45.9671 8.37848H45.2962C45.1072 8.37848 44.9386 8.39403 44.7903 8.42512C44.642 8.45382 44.5177 8.49807 44.4172 8.55787C44.3167 8.61766 44.2402 8.69301 44.1876 8.7839C44.135 8.87239 44.1087 8.97644 44.1087 9.09603C44.1087 9.21801 44.1362 9.32923 44.1912 9.42969C44.2462 9.53014 44.3287 9.61027 44.4387 9.67006C44.5511 9.72747 44.6887 9.75617 44.8513 9.75617C45.0546 9.75617 45.234 9.71312 45.3895 9.62701C45.5449 9.5409 45.6681 9.43567 45.759 9.31129C45.8523 9.18692 45.9025 9.06613 45.9097 8.94893L46.1931 9.26824C46.1764 9.36869 46.1309 9.47991 46.0568 9.6019C45.9826 9.72388 45.8834 9.84108 45.759 9.95349C45.637 10.0635 45.4911 10.1556 45.3213 10.2297C45.1539 10.3015 44.9649 10.3374 44.7544 10.3374C44.4914 10.3374 44.2605 10.286 44.062 10.1831C43.8659 10.0803 43.7128 9.94273 43.6028 9.77052C43.4952 9.59592 43.4413 9.40098 43.4413 9.18572C43.4413 8.97763 43.482 8.79466 43.5633 8.6368C43.6446 8.47655 43.7618 8.3438 43.9149 8.23856C44.068 8.13093 44.2522 8.04961 44.4674 7.9946C44.6827 7.93958 44.9231 7.91208 45.1886 7.91208H45.9599ZM50.4805 6.38371V10.2656H49.8167V6.38371H50.4805ZM50.2544 8.16681V8.71214C50.1205 8.76237 49.9842 8.80781 49.8454 8.84847C49.7091 8.88674 49.5644 8.91784 49.4113 8.94176C49.2606 8.96328 49.0968 8.97404 48.9198 8.97404C48.6136 8.97404 48.3482 8.92142 48.1233 8.81618C47.8985 8.70855 47.7251 8.54711 47.6031 8.33184C47.4811 8.11419 47.4201 7.84032 47.4201 7.51025V6.37653H48.0839V7.51025C48.0839 7.72552 48.1161 7.90012 48.1807 8.03406C48.2453 8.168 48.3398 8.26726 48.4642 8.33184C48.5885 8.39403 48.7404 8.42512 48.9198 8.42512C49.092 8.42512 49.2535 8.41436 49.4041 8.39283C49.5572 8.36892 49.7031 8.33782 49.8418 8.29955C49.983 8.26128 50.1205 8.21704 50.2544 8.16681ZM53.8386 9.6019V7.60353C53.8386 7.45046 53.8075 7.31771 53.7453 7.2053C53.6855 7.09049 53.5946 7.00199 53.4726 6.93981C53.3506 6.87762 53.1999 6.84653 53.0206 6.84653C52.8531 6.84653 52.706 6.87523 52.5793 6.93263C52.4549 6.99003 52.3568 7.06538 52.2851 7.15866C52.2157 7.25194 52.181 7.35239 52.181 7.46003H51.5173C51.5173 7.3213 51.5532 7.18377 51.6249 7.04744C51.6967 6.9111 51.7995 6.78793 51.9335 6.6779C52.0698 6.56549 52.2325 6.47699 52.4214 6.41241C52.6128 6.34544 52.8256 6.31195 53.06 6.31195C53.3423 6.31195 53.591 6.35979 53.8063 6.45546C54.0239 6.55114 54.1937 6.69584 54.3157 6.88958C54.4401 7.08092 54.5023 7.3213 54.5023 7.61071V9.41892C54.5023 9.54808 54.5131 9.68561 54.5346 9.83151C54.5585 9.97741 54.5932 10.103 54.6386 10.2082V10.2656H53.9462C53.9127 10.1891 53.8864 10.0874 53.8673 9.96067C53.8481 9.83151 53.8386 9.71192 53.8386 9.6019ZM53.9534 7.91208L53.9605 8.37848H53.2896C53.1007 8.37848 52.9321 8.39403 52.7838 8.42512C52.6355 8.45382 52.5111 8.49807 52.4107 8.55787C52.3102 8.61766 52.2337 8.69301 52.181 8.7839C52.1284 8.87239 52.1021 8.97644 52.1021 9.09603C52.1021 9.21801 52.1296 9.32923 52.1846 9.42969C52.2396 9.53014 52.3222 9.61027 52.4322 9.67006C52.5446 9.72747 52.6821 9.75617 52.8448 9.75617C53.0481 9.75617 53.2275 9.71312 53.3829 9.62701C53.5384 9.5409 53.6616 9.43567 53.7525 9.31129C53.8457 9.18692 53.896 9.06613 53.9031 8.94893L54.1866 9.26824C54.1698 9.36869 54.1244 9.47991 54.0502 9.6019C53.9761 9.72388 53.8768 9.84108 53.7525 9.95349C53.6305 10.0635 53.4846 10.1556 53.3148 10.2297C53.1473 10.3015 52.9584 10.3374 52.7479 10.3374C52.4848 10.3374 52.254 10.286 52.0555 10.1831C51.8593 10.0803 51.7063 9.94273 51.5962 9.77052C51.4886 9.59592 51.4348 9.40098 51.4348 9.18572C51.4348 8.97763 51.4755 8.79466 51.5568 8.6368C51.6381 8.47655 51.7553 8.3438 51.9084 8.23856C52.0614 8.13093 52.2456 8.04961 52.4609 7.9946C52.6761 7.93958 52.9165 7.91208 53.182 7.91208H53.9534ZM57.0711 6.38371V10.2656H56.4038V6.38371H57.0711ZM58.3734 6.38371V6.92187H55.1266V6.38371H58.3734ZM59.5717 7.71834H60.7378C61.0511 7.71834 61.3154 7.77335 61.5306 7.88338C61.7459 7.99101 61.9085 8.1405 62.0186 8.33184C62.131 8.5208 62.1872 8.73606 62.1872 8.97763C62.1872 9.15702 62.1561 9.32564 62.0939 9.4835C62.0317 9.63897 61.9384 9.7753 61.8141 9.8925C61.6921 10.0097 61.5402 10.1018 61.3584 10.1688C61.179 10.2333 60.9722 10.2656 60.7378 10.2656H59.0874V6.38371H59.7511V9.72029H60.7378C60.9291 9.72029 61.0822 9.68561 61.197 9.61625C61.3118 9.54688 61.3943 9.45719 61.4445 9.34717C61.4948 9.23714 61.5199 9.12234 61.5199 9.00275C61.5199 8.88555 61.4948 8.77074 61.4445 8.65833C61.3943 8.54591 61.3118 8.45263 61.197 8.37848C61.0822 8.30194 60.9291 8.26368 60.7378 8.26368H59.5717V7.71834ZM65.5561 9.21442L67.3463 6.38371H68.0137V10.2656H67.3463V7.43491L65.5561 10.2656H64.8959V6.38371H65.5561V9.21442ZM70.5287 8.41077H69.8147V8.00177H70.4748C70.659 8.00177 70.8049 7.97905 70.9125 7.93361C71.0202 7.88577 71.0967 7.81999 71.1422 7.73628C71.1876 7.65257 71.2103 7.5545 71.2103 7.44209C71.2103 7.34163 71.184 7.24715 71.1314 7.15866C71.0812 7.06777 70.9998 6.99482 70.8874 6.93981C70.775 6.8824 70.6243 6.8537 70.4354 6.8537C70.2823 6.8537 70.1436 6.88121 70.0192 6.93622C69.8948 6.98884 69.7956 7.06179 69.7214 7.15507C69.6497 7.24596 69.6138 7.34881 69.6138 7.46361H68.9501C68.9501 7.22682 69.017 7.02352 69.151 6.8537C69.2873 6.68149 69.4679 6.54874 69.6927 6.45546C69.9199 6.36218 70.1675 6.31554 70.4354 6.31554C70.6602 6.31554 70.8611 6.34066 71.0381 6.39088C71.2175 6.43872 71.3694 6.51048 71.4937 6.60615C71.6181 6.69943 71.7126 6.81663 71.7772 6.95774C71.8441 7.09647 71.8776 7.25792 71.8776 7.44209C71.8776 7.57364 71.8465 7.69801 71.7844 7.81521C71.7222 7.93241 71.6325 8.03645 71.5153 8.12734C71.3981 8.21584 71.2558 8.2852 71.0883 8.33543C70.9233 8.38566 70.7367 8.41077 70.5287 8.41077ZM69.8147 8.15963H70.5287C70.7607 8.15963 70.9652 8.18235 71.1422 8.2278C71.3191 8.27085 71.4674 8.33543 71.587 8.42154C71.7066 8.50764 71.7963 8.61408 71.8561 8.74084C71.9183 8.86522 71.9494 9.00873 71.9494 9.17137C71.9494 9.35315 71.9123 9.51699 71.8382 9.66289C71.7664 9.8064 71.6636 9.92838 71.5296 10.0288C71.3957 10.1293 71.2354 10.2058 71.0489 10.2584C70.8647 10.3111 70.6602 10.3374 70.4354 10.3374C70.1842 10.3374 69.9403 10.2943 69.7035 10.2082C69.4667 10.1221 69.2718 9.98937 69.1187 9.80998C68.9656 9.62821 68.8891 9.3974 68.8891 9.11755H69.5528C69.5528 9.23475 69.5899 9.34597 69.664 9.45121C69.7382 9.55645 69.841 9.64136 69.9726 9.70594C70.1065 9.77052 70.2608 9.80281 70.4354 9.80281C70.6219 9.80281 70.7774 9.77411 70.9018 9.7167C71.0261 9.6593 71.1194 9.58276 71.1816 9.48709C71.2462 9.39142 71.2785 9.28737 71.2785 9.17496C71.2785 9.02906 71.2498 8.91186 71.1924 8.82336C71.135 8.73486 71.0465 8.67028 70.9269 8.62962C70.8097 8.58657 70.659 8.56504 70.4748 8.56504H69.8147V8.15963ZM72.7817 9.91403C72.7817 9.80161 72.8164 9.70714 72.8858 9.6306C72.9575 9.55167 73.0604 9.5122 73.1943 9.5122C73.3283 9.5122 73.4299 9.55167 73.4993 9.6306C73.571 9.70714 73.6069 9.80161 73.6069 9.91403C73.6069 10.0241 73.571 10.1173 73.4993 10.1939C73.4299 10.2704 73.3283 10.3087 73.1943 10.3087C73.0604 10.3087 72.9575 10.2704 72.8858 10.1939C72.8164 10.1173 72.7817 10.0241 72.7817 9.91403ZM72.7853 6.74607C72.7853 6.63365 72.82 6.53918 72.8894 6.46264C72.9611 6.38371 73.064 6.34424 73.1979 6.34424C73.3319 6.34424 73.4335 6.38371 73.5029 6.46264C73.5746 6.53918 73.6105 6.63365 73.6105 6.74607C73.6105 6.85609 73.5746 6.94937 73.5029 7.02591C73.4335 7.10245 73.3319 7.14072 73.1979 7.14072C73.064 7.14072 72.9611 7.10245 72.8894 7.02591C72.82 6.94937 72.7853 6.85609 72.7853 6.74607Z" fill="#4097E3"/>
<path d="M38.2403 15.6566L35.5503 23.0625H34.4509L37.5483 14.9367H38.2571L38.2403 15.6566ZM40.495 23.0625L37.7994 15.6566L37.7827 14.9367H38.4915L41.6 23.0625H40.495ZM40.3555 20.0544V20.9362H35.7903V20.0544H40.3555ZM43.5645 18.1848V25.3842H42.5265V17.024H43.4752L43.5645 18.1848ZM47.633 19.993V20.1102C47.633 20.5492 47.5809 20.9566 47.4767 21.3324C47.3726 21.7045 47.22 22.0282 47.0191 22.3035C46.8219 22.5788 46.5782 22.7928 46.288 22.9453C45.9978 23.0978 45.6648 23.1741 45.289 23.1741C44.9058 23.1741 44.5672 23.1109 44.2733 22.9844C43.9794 22.8579 43.7301 22.6737 43.5255 22.4319C43.3208 22.19 43.1571 21.8998 43.0343 21.5612C42.9153 21.2227 42.8334 20.8413 42.7888 20.4172V19.7921C42.8334 19.3456 42.9171 18.9457 43.0399 18.5922C43.1627 18.2387 43.3245 17.9374 43.5255 17.6881C43.7301 17.4351 43.9775 17.2435 44.2677 17.1133C44.5579 16.9793 44.8928 16.9123 45.2723 16.9123C45.6518 16.9123 45.9885 16.9868 46.2824 17.1356C46.5763 17.2807 46.8238 17.489 47.0247 17.7606C47.2256 18.0322 47.3763 18.3578 47.4767 18.7373C47.5809 19.1131 47.633 19.5316 47.633 19.993ZM46.595 20.1102V19.993C46.595 19.6916 46.5633 19.4089 46.5001 19.1447C46.4368 18.8768 46.3382 18.6424 46.2043 18.4415C46.0741 18.2369 45.9066 18.0769 45.702 17.9616C45.4974 17.8425 45.2537 17.783 44.9709 17.783C44.7105 17.783 44.4835 17.8276 44.29 17.9169C44.1003 18.0062 43.9384 18.1271 43.8045 18.2797C43.6706 18.4285 43.5608 18.5996 43.4752 18.7931C43.3934 18.9829 43.332 19.1801 43.2911 19.3847V20.8301C43.3655 21.0906 43.4696 21.3361 43.6036 21.5668C43.7375 21.7938 43.9161 21.9779 44.1394 22.1193C44.3626 22.257 44.6435 22.3258 44.9821 22.3258C45.2611 22.3258 45.5011 22.2682 45.702 22.1528C45.9066 22.0338 46.0741 21.8719 46.2043 21.6673C46.3382 21.4626 46.4368 21.2282 46.5001 20.9641C46.5633 20.6962 46.595 20.4116 46.595 20.1102ZM49.9826 18.1848V25.3842H48.9445V17.024H49.8933L49.9826 18.1848ZM54.051 19.993V20.1102C54.051 20.5492 53.9989 20.9566 53.8948 21.3324C53.7906 21.7045 53.6381 22.0282 53.4371 22.3035C53.2399 22.5788 52.9962 22.7928 52.706 22.9453C52.4158 23.0978 52.0828 23.1741 51.7071 23.1741C51.3238 23.1741 50.9853 23.1109 50.6913 22.9844C50.3974 22.8579 50.1481 22.6737 49.9435 22.4319C49.7389 22.19 49.5752 21.8998 49.4524 21.5612C49.3333 21.2227 49.2515 20.8413 49.2068 20.4172V19.7921C49.2515 19.3456 49.3352 18.9457 49.458 18.5922C49.5807 18.2387 49.7426 17.9374 49.9435 17.6881C50.1481 17.4351 50.3955 17.2435 50.6858 17.1133C50.976 16.9793 51.3108 16.9123 51.6903 16.9123C52.0698 16.9123 52.4065 16.9868 52.7005 17.1356C52.9944 17.2807 53.2418 17.489 53.4427 17.7606C53.6436 18.0322 53.7943 18.3578 53.8948 18.7373C53.9989 19.1131 54.051 19.5316 54.051 19.993ZM53.013 20.1102V19.993C53.013 19.6916 52.9814 19.4089 52.9181 19.1447C52.8549 18.8768 52.7563 18.6424 52.6223 18.4415C52.4921 18.2369 52.3247 18.0769 52.12 17.9616C51.9154 17.8425 51.6717 17.783 51.3889 17.783C51.1285 17.783 50.9015 17.8276 50.7081 17.9169C50.5183 18.0062 50.3565 18.1271 50.2225 18.2797C50.0886 18.4285 49.9788 18.5996 49.8933 18.7931C49.8114 18.9829 49.75 19.1801 49.7091 19.3847V20.8301C49.7835 21.0906 49.8877 21.3361 50.0216 21.5668C50.1556 21.7938 50.3342 21.9779 50.5574 22.1193C50.7806 22.257 51.0615 22.3258 51.4001 22.3258C51.6792 22.3258 51.9191 22.2682 52.12 22.1528C52.3247 22.0338 52.4921 21.8719 52.6223 21.6673C52.7563 21.4626 52.8549 21.2282 52.9181 20.9641C52.9814 20.6962 53.013 20.4116 53.013 20.1102ZM62.6903 21.0087C62.6903 20.819 62.6605 20.6516 62.601 20.5064C62.5452 20.3576 62.4447 20.2237 62.2996 20.1046C62.1582 19.9856 61.961 19.8721 61.708 19.7642C61.4588 19.6563 61.1425 19.5465 60.7593 19.4349C60.3575 19.3159 59.9947 19.1838 59.671 19.0387C59.3473 18.8898 59.0701 18.7206 58.8395 18.5308C58.6088 18.3411 58.432 18.1234 58.3093 17.8778C58.1865 17.6323 58.1251 17.3514 58.1251 17.0351C58.1251 16.7189 58.1902 16.4268 58.3204 16.1589C58.4506 15.891 58.6367 15.6585 58.8785 15.4613C59.1241 15.2604 59.4161 15.1041 59.7547 14.9925C60.0933 14.8809 60.4709 14.8251 60.8876 14.8251C61.4978 14.8251 62.015 14.9423 62.4391 15.1767C62.867 15.4074 63.1926 15.7106 63.4158 16.0864C63.639 16.4584 63.7506 16.8565 63.7506 17.2807H62.6791C62.6791 16.9756 62.614 16.7059 62.4838 16.4715C62.3536 16.2333 62.1564 16.0473 61.8922 15.9134C61.628 15.7757 61.2932 15.7069 60.8876 15.7069C60.5044 15.7069 60.1882 15.7645 59.9389 15.8799C59.6896 15.9952 59.5036 16.1515 59.3808 16.3487C59.2617 16.5459 59.2022 16.771 59.2022 17.024C59.2022 17.1951 59.2376 17.3514 59.3082 17.4928C59.3827 17.6304 59.4961 17.7588 59.6487 17.8778C59.8049 17.9969 60.0021 18.1067 60.2403 18.2071C60.4821 18.3076 60.7704 18.4043 61.1053 18.4973C61.5667 18.6275 61.9648 18.7726 62.2996 18.9326C62.6345 19.0926 62.9098 19.2731 63.1256 19.474C63.3451 19.6712 63.5069 19.8963 63.6111 20.1493C63.719 20.3985 63.773 20.6813 63.773 20.9976C63.773 21.3287 63.706 21.6282 63.5721 21.8961C63.4381 22.164 63.2465 22.3928 62.9972 22.5825C62.7479 22.7723 62.4484 22.9193 62.0987 23.0234C61.7527 23.1239 61.3657 23.1741 60.9379 23.1741C60.5621 23.1741 60.1919 23.122 59.8273 23.0179C59.4664 22.9137 59.1371 22.7574 58.8395 22.5491C58.5455 22.3407 58.3093 22.084 58.1307 21.7789C57.9558 21.4701 57.8684 21.1129 57.8684 20.7074H58.9399C58.9399 20.9864 58.9939 21.2264 59.1018 21.4273C59.2097 21.6245 59.3566 21.7882 59.5426 21.9184C59.7324 22.0486 59.9463 22.1454 60.1844 22.2086C60.4263 22.2682 60.6774 22.2979 60.9379 22.2979C61.3137 22.2979 61.6318 22.2458 61.8922 22.1417C62.1526 22.0375 62.3498 21.8887 62.4838 21.6952C62.6214 21.5017 62.6903 21.2729 62.6903 21.0087ZM67.5178 17.024V17.8165H64.2529V17.024H67.5178ZM65.3579 15.5562H66.3904V21.5668C66.3904 21.7715 66.422 21.9259 66.4853 22.03C66.5485 22.1342 66.6304 22.203 66.7308 22.2365C66.8313 22.27 66.9392 22.2868 67.0545 22.2868C67.1401 22.2868 67.2294 22.2793 67.3224 22.2644C67.4192 22.2458 67.4917 22.2309 67.5401 22.2198L67.5457 23.0625C67.4638 23.0885 67.3559 23.1127 67.222 23.1351C67.0917 23.1611 66.9336 23.1741 66.7476 23.1741C66.4946 23.1741 66.2621 23.1239 66.05 23.0234C65.8379 22.923 65.6686 22.7556 65.5421 22.5212C65.4193 22.283 65.3579 21.9631 65.3579 21.5612V15.5562ZM68.3437 20.1102V19.9818C68.3437 19.5465 68.407 19.1428 68.5335 18.7708C68.66 18.395 68.8423 18.0695 69.0804 17.7941C69.3185 17.5151 69.6069 17.2993 69.9454 17.1467C70.284 16.9905 70.6635 16.9123 71.084 16.9123C71.5081 16.9123 71.8895 16.9905 72.228 17.1467C72.5703 17.2993 72.8605 17.5151 73.0987 17.7941C73.3405 18.0695 73.5247 18.395 73.6512 18.7708C73.7777 19.1428 73.8409 19.5465 73.8409 19.9818V20.1102C73.8409 20.5455 73.7777 20.9492 73.6512 21.3213C73.5247 21.6933 73.3405 22.0189 73.0987 22.2979C72.8605 22.5732 72.5722 22.789 72.2336 22.9453C71.8988 23.0978 71.5193 23.1741 71.0951 23.1741C70.671 23.1741 70.2896 23.0978 69.951 22.9453C69.6125 22.789 69.3222 22.5732 69.0804 22.2979C68.8423 22.0189 68.66 21.6933 68.5335 21.3213C68.407 20.9492 68.3437 20.5455 68.3437 20.1102ZM69.3762 19.9818V20.1102C69.3762 20.4116 69.4115 20.6962 69.4822 20.9641C69.5529 21.2282 69.659 21.4626 69.8003 21.6673C69.9454 21.8719 70.1259 22.0338 70.3417 22.1528C70.5575 22.2682 70.8086 22.3258 71.0951 22.3258C71.3779 22.3258 71.6253 22.2682 71.8374 22.1528C72.0532 22.0338 72.2318 21.8719 72.3731 21.6673C72.5145 21.4626 72.6206 21.2282 72.6912 20.9641C72.7657 20.6962 72.8029 20.4116 72.8029 20.1102V19.9818C72.8029 19.6842 72.7657 19.4033 72.6912 19.1391C72.6206 18.8712 72.5127 18.635 72.3676 18.4304C72.2262 18.222 72.0476 18.0583 71.8318 17.9392C71.6197 17.8202 71.3704 17.7606 71.084 17.7606C70.8012 17.7606 70.5519 17.8202 70.3361 17.9392C70.124 18.0583 69.9454 18.222 69.8003 18.4304C69.659 18.635 69.5529 18.8712 69.4822 19.1391C69.4115 19.4033 69.3762 19.6842 69.3762 19.9818ZM76.1682 17.9727V23.0625H75.1357V17.024H76.1402L76.1682 17.9727ZM78.0545 16.9905L78.0489 17.9504C77.9633 17.9318 77.8815 17.9206 77.8034 17.9169C77.7289 17.9095 77.6434 17.9057 77.5466 17.9057C77.3085 17.9057 77.0983 17.943 76.916 18.0174C76.7337 18.0918 76.5793 18.196 76.4528 18.3299C76.3263 18.4638 76.2258 18.6238 76.1514 18.8099C76.0807 18.9922 76.0342 19.1931 76.0119 19.4126L75.7217 19.58C75.7217 19.2154 75.757 18.8731 75.8277 18.5531C75.9021 18.2332 76.0156 17.9504 76.1682 17.7048C76.3207 17.4556 76.5142 17.2621 76.7486 17.1244C76.9867 16.983 77.2694 16.9123 77.5969 16.9123C77.6713 16.9123 77.7568 16.9216 77.8536 16.9403C77.9503 16.9551 78.0173 16.9719 78.0545 16.9905ZM81.403 23.1741C80.9826 23.1741 80.6012 23.1034 80.259 22.962C79.9204 22.8169 79.6283 22.6142 79.3828 22.3537C79.1409 22.0933 78.9549 21.7845 78.8247 21.4273C78.6944 21.0701 78.6293 20.6795 78.6293 20.2553V20.0209C78.6293 19.5298 78.7019 19.0926 78.847 18.7094C78.9921 18.3225 79.1893 17.995 79.4386 17.7272C79.6878 17.4593 79.9706 17.2565 80.2869 17.1188C80.6031 16.9812 80.9305 16.9123 81.2691 16.9123C81.7007 16.9123 82.0727 16.9868 82.3853 17.1356C82.7015 17.2844 82.9601 17.4928 83.161 17.7606C83.3619 18.0248 83.5108 18.3373 83.6075 18.6982C83.7042 19.0554 83.7526 19.4461 83.7526 19.8702V20.3334H79.2432V19.4907H82.7201V19.4126C82.7052 19.1447 82.6494 18.8843 82.5527 18.6313C82.4597 18.3783 82.3109 18.1699 82.1062 18.0062C81.9016 17.8425 81.6226 17.7606 81.2691 17.7606C81.0347 17.7606 80.8189 17.8109 80.6217 17.9113C80.4245 18.0081 80.2552 18.1532 80.1138 18.3466C79.9725 18.5401 79.8627 18.7764 79.7846 19.0554C79.7064 19.3345 79.6674 19.6563 79.6674 20.0209V20.2553C79.6674 20.5418 79.7064 20.8115 79.7846 21.0645C79.8664 21.3138 79.9836 21.5333 80.1362 21.7231C80.2924 21.9128 80.4803 22.0617 80.6998 22.1696C80.9231 22.2775 81.1761 22.3314 81.4588 22.3314C81.8235 22.3314 82.1323 22.257 82.3853 22.1082C82.6383 21.9593 82.8597 21.7603 83.0494 21.511L83.6745 22.0077C83.5442 22.2049 83.3787 22.3928 83.1778 22.5714C82.9769 22.75 82.7294 22.8951 82.4355 23.0067C82.1453 23.1183 81.8011 23.1741 81.403 23.1741Z" fill="#4097E3"/>
</svg>
