<svg width="68" height="68" viewBox="0 0 68 68" fill="none" xmlns="http://www.w3.org/2000/svg">
<path d="M0 20.8936C0 11.4655 0 6.75142 2.92893 3.82249C5.85786 0.893555 10.5719 0.893555 20 0.893555L68 0.893555L68 67.9912L0 67.9912L0 20.8936Z" fill="white"/>
<path d="M45.8452 21.6782H22.9057C20.7534 21.6782 19.0024 23.4431 19.0024 25.6125V41.2188C19.0024 43.3009 20.6153 45.0105 22.6479 45.1446C21.2148 47.8295 19.3142 49.6188 19.2929 49.6386C18.6181 50.2649 19.2028 51.3927 20.098 51.1929C20.3941 51.1268 27.2135 49.5609 30.8084 45.1531H45.8451C47.9974 45.1531 49.7484 43.3882 49.7484 41.2188V25.6125C49.7485 23.4431 47.9974 21.6782 45.8452 21.6782ZM26.2986 28.9114C26.7961 28.9114 27.1993 29.3179 27.1993 29.8193C27.1993 30.3207 26.7961 30.7272 26.2986 30.7272C25.8011 30.7272 25.3978 30.3207 25.3978 29.8193C25.3978 29.3179 25.8011 28.9114 26.2986 28.9114ZM38.7591 37.93H26.2986C25.8011 37.93 25.3978 37.5235 25.3978 37.0221C25.3978 36.5207 25.8011 36.1142 26.2986 36.1142H38.7591C39.2566 36.1142 39.6599 36.5207 39.6599 37.0221C39.6599 37.5235 39.2566 37.93 38.7591 37.93ZM42.5123 37.93C42.0148 37.93 41.6115 37.5235 41.6115 37.0221C41.6115 36.5207 42.0148 36.1142 42.5123 36.1142C43.0098 36.1142 43.4131 36.5207 43.4131 37.0221C43.4131 37.5236 43.0098 37.93 42.5123 37.93ZM42.5123 34.2984H26.2986C25.8011 34.2984 25.3978 33.8919 25.3978 33.3905C25.3978 32.889 25.8011 32.4825 26.2986 32.4825H42.5123C43.0098 32.4825 43.4131 32.889 43.4131 33.3905C43.4131 33.8919 43.0098 34.2984 42.5123 34.2984ZM42.5123 30.6667H29.8716C29.3741 30.6667 28.9708 30.2602 28.9708 29.7588C28.9708 29.2574 29.3741 28.8509 29.8716 28.8509H42.5123C43.0098 28.8509 43.4131 29.2574 43.4131 29.7588C43.4131 30.2602 43.0098 30.6667 42.5123 30.6667Z" fill="#2D71D4"/>
<ellipse cx="48.0419" cy="22.4312" rx="4.95837" ry="4.76318" fill="#9EED97"/>
</svg>
