<svg width="34" height="66" viewBox="0 0 34 66" fill="none" xmlns="http://www.w3.org/2000/svg">
<path d="M26.8452 4.67822H3.90567C1.7534 4.67822 0.00236112 6.44315 0.00236112 8.61252V24.2188C0.00236112 26.3009 1.61527 28.0105 3.64791 28.1446C2.21481 30.8295 0.31423 32.6188 0.29291 32.6386C-0.381935 33.2649 0.202827 34.3927 1.09802 34.1929C1.39409 34.1268 8.21346 32.5609 11.8084 28.1531H26.8451C28.9974 28.1531 30.7484 26.3882 30.7484 24.2188V8.61252C30.7485 6.44315 28.9974 4.67822 26.8452 4.67822ZM7.29857 11.9114C7.79607 11.9114 8.19935 12.3179 8.19935 12.8193C8.19935 13.3207 7.79607 13.7272 7.29857 13.7272C6.80107 13.7272 6.3978 13.3207 6.3978 12.8193C6.3978 12.3179 6.80107 11.9114 7.29857 11.9114ZM19.7591 20.93H7.29857C6.80107 20.93 6.3978 20.5235 6.3978 20.0221C6.3978 19.5207 6.80107 19.1142 7.29857 19.1142H19.7591C20.2566 19.1142 20.6599 19.5207 20.6599 20.0221C20.6599 20.5235 20.2566 20.93 19.7591 20.93ZM23.5123 20.93C23.0148 20.93 22.6115 20.5235 22.6115 20.0221C22.6115 19.5207 23.0148 19.1142 23.5123 19.1142C24.0098 19.1142 24.4131 19.5207 24.4131 20.0221C24.4131 20.5236 24.0098 20.93 23.5123 20.93ZM23.5123 17.2984H7.29857C6.80107 17.2984 6.3978 16.8919 6.3978 16.3905C6.3978 15.889 6.80107 15.4825 7.29857 15.4825H23.5123C24.0098 15.4825 24.4131 15.889 24.4131 16.3905C24.4131 16.8919 24.0098 17.2984 23.5123 17.2984ZM23.5123 13.6667H10.8716C10.3741 13.6667 9.97081 13.2602 9.97081 12.7588C9.97081 12.2574 10.3741 11.8509 10.8716 11.8509H23.5123C24.0098 11.8509 24.4131 12.2574 24.4131 12.7588C24.4131 13.2602 24.0098 13.6667 23.5123 13.6667Z" fill="#2D71D4"/>
<ellipse cx="29.0419" cy="5.43115" rx="4.95837" ry="4.76318" fill="#9EED97"/>
</svg>
