<svg width="15" height="15" viewBox="0 0 15 15" fill="none" xmlns="http://www.w3.org/2000/svg">
<path d="M2.73891 0C1.22167 0 0 1.22167 0 2.7389V12.2611C0 13.7783 1.22167 15 2.73891 15H7.89985V9.13593H6.34923V7.02468H7.89985V5.22093C7.89985 3.80381 8.81604 2.50265 10.9266 2.50265C11.7811 2.50265 12.413 2.58469 12.413 2.58469L12.3633 4.55626C12.3633 4.55626 11.7188 4.55017 11.0156 4.55017C10.2545 4.55017 10.1325 4.90084 10.1325 5.48298V7.0247H12.4237L12.3239 9.13594H10.1325V15H12.2611C13.7783 15 15 13.7783 15 12.2611V2.73892C15 1.22169 13.7783 1.5e-05 12.2611 1.5e-05H2.73889L2.73891 0Z" fill="#9ECDF6"/>
</svg>
