<svg width="97" height="32" viewBox="0 0 97 32" fill="none" xmlns="http://www.w3.org/2000/svg">
<rect x="0.664062" width="96.3359" height="31.0234" rx="4.89844" fill="#9ECDF6"/>
<path d="M31.3654 8.60451H32.0542C32.0184 8.93458 31.9239 9.22997 31.7708 9.49068C31.6177 9.75138 31.4013 9.95828 31.1214 10.1114C30.8416 10.262 30.4924 10.3374 30.0738 10.3374C29.7677 10.3374 29.489 10.28 29.2379 10.1652C28.9891 10.0504 28.7751 9.88772 28.5957 9.67724C28.4163 9.46437 28.2776 9.20964 28.1795 8.91305C28.0838 8.61408 28.036 8.28161 28.036 7.91567V7.39545C28.036 7.0295 28.0838 6.69823 28.1795 6.40165C28.2776 6.10267 28.4175 5.84675 28.5993 5.63387C28.7834 5.421 29.0047 5.25716 29.263 5.14236C29.5213 5.02755 29.8119 4.97015 30.1348 4.97015C30.5295 4.97015 30.8631 5.04429 31.1358 5.19258C31.4085 5.34088 31.6201 5.54657 31.7708 5.80967C31.9239 6.07038 32.0184 6.37295 32.0542 6.71737H31.3654C31.3319 6.4734 31.2697 6.26412 31.1788 6.08952C31.088 5.91252 30.9588 5.77619 30.7914 5.68052C30.6239 5.58484 30.4051 5.53701 30.1348 5.53701C29.9028 5.53701 29.6983 5.58125 29.5213 5.66975C29.3467 5.75825 29.1996 5.88382 29.08 6.04646C28.9628 6.20911 28.8743 6.40404 28.8145 6.63126C28.7547 6.85848 28.7248 7.11082 28.7248 7.38827V7.91567C28.7248 8.17159 28.7511 8.41197 28.8038 8.6368C28.8588 8.86163 28.9413 9.05895 29.0513 9.22877C29.1613 9.39859 29.3013 9.53253 29.4711 9.6306C29.6409 9.72627 29.8418 9.77411 30.0738 9.77411C30.368 9.77411 30.6024 9.72747 30.777 9.63419C30.9516 9.5409 31.0832 9.40696 31.1717 9.23236C31.2626 9.05776 31.3271 8.84847 31.3654 8.60451ZM33.6185 6.38371V10.2656H32.9548V6.38371H33.6185ZM36.1658 6.38371L34.3253 8.6081H33.3961L33.2956 8.02689H34.0562L35.3585 6.38371H36.1658ZM35.4518 10.2656L34.0239 8.50764L34.4508 8.02689L36.2949 10.2656H35.4518ZM39.1615 9.6019V7.60353C39.1615 7.45046 39.1304 7.31771 39.0682 7.2053C39.0084 7.09049 38.9176 7.00199 38.7956 6.93981C38.6736 6.87762 38.5229 6.84653 38.3435 6.84653C38.1761 6.84653 38.029 6.87523 37.9022 6.93263C37.7779 6.99003 37.6798 7.06538 37.608 7.15866C37.5387 7.25194 37.504 7.35239 37.504 7.46003H36.8403C36.8403 7.3213 36.8761 7.18377 36.9479 7.04744C37.0197 6.9111 37.1225 6.78793 37.2564 6.6779C37.3928 6.56549 37.5554 6.47699 37.7444 6.41241C37.9357 6.34544 38.1486 6.31195 38.383 6.31195C38.6652 6.31195 38.914 6.35979 39.1292 6.45546C39.3469 6.55114 39.5167 6.69584 39.6387 6.88958C39.7631 7.08092 39.8253 7.3213 39.8253 7.61071V9.41892C39.8253 9.54808 39.836 9.68561 39.8575 9.83151C39.8815 9.97741 39.9161 10.103 39.9616 10.2082V10.2656H39.2692C39.2357 10.1891 39.2094 10.0874 39.1902 9.96067C39.1711 9.83151 39.1615 9.71192 39.1615 9.6019ZM39.2763 7.91208L39.2835 8.37848H38.6126C38.4236 8.37848 38.255 8.39403 38.1067 8.42512C37.9584 8.45382 37.8341 8.49807 37.7336 8.55787C37.6332 8.61766 37.5566 8.69301 37.504 8.7839C37.4514 8.87239 37.4251 8.97644 37.4251 9.09603C37.4251 9.21801 37.4526 9.32923 37.5076 9.42969C37.5626 9.53014 37.6451 9.61027 37.7551 9.67006C37.8676 9.72747 38.0051 9.75617 38.1677 9.75617C38.371 9.75617 38.5504 9.71312 38.7059 9.62701C38.8614 9.5409 38.9845 9.43567 39.0754 9.31129C39.1687 9.18692 39.2189 9.06613 39.2261 8.94893L39.5095 9.26824C39.4928 9.36869 39.4473 9.47991 39.3732 9.6019C39.2991 9.72388 39.1998 9.84108 39.0754 9.95349C38.9534 10.0635 38.8075 10.1556 38.6377 10.2297C38.4703 10.3015 38.2813 10.3374 38.0709 10.3374C37.8078 10.3374 37.5769 10.286 37.3784 10.1831C37.1823 10.0803 37.0292 9.94273 36.9192 9.77052C36.8116 9.59592 36.7577 9.40098 36.7577 9.18572C36.7577 8.97763 36.7984 8.79466 36.8797 8.6368C36.9611 8.47655 37.0783 8.3438 37.2313 8.23856C37.3844 8.13093 37.5686 8.04961 37.7838 7.9946C37.9991 7.93958 38.2395 7.91208 38.505 7.91208H39.2763ZM43.7969 6.38371V10.2656H43.1331V6.38371H43.7969ZM43.5708 8.16681V8.71214C43.4369 8.76237 43.3006 8.80781 43.1618 8.84847C43.0255 8.88674 42.8808 8.91784 42.7277 8.94176C42.577 8.96328 42.4132 8.97404 42.2362 8.97404C41.93 8.97404 41.6646 8.92142 41.4397 8.81618C41.2149 8.70855 41.0415 8.54711 40.9195 8.33184C40.7975 8.11419 40.7365 7.84032 40.7365 7.51025V6.37653H41.4003V7.51025C41.4003 7.72552 41.4326 7.90012 41.4971 8.03406C41.5617 8.168 41.6562 8.26726 41.7806 8.33184C41.9049 8.39403 42.0568 8.42512 42.2362 8.42512C42.4084 8.42512 42.5699 8.41436 42.7205 8.39283C42.8736 8.36892 43.0195 8.33782 43.1582 8.29955C43.2994 8.26128 43.4369 8.21704 43.5708 8.16681ZM47.155 9.6019V7.60353C47.155 7.45046 47.1239 7.31771 47.0617 7.2053C47.0019 7.09049 46.911 7.00199 46.789 6.93981C46.667 6.87762 46.5164 6.84653 46.337 6.84653C46.1695 6.84653 46.0224 6.87523 45.8957 6.93263C45.7713 6.99003 45.6732 7.06538 45.6015 7.15866C45.5321 7.25194 45.4974 7.35239 45.4974 7.46003H44.8337C44.8337 7.3213 44.8696 7.18377 44.9413 7.04744C45.0131 6.9111 45.1159 6.78793 45.2499 6.6779C45.3862 6.56549 45.5489 6.47699 45.7378 6.41241C45.9292 6.34544 46.142 6.31195 46.3764 6.31195C46.6587 6.31195 46.9074 6.35979 47.1227 6.45546C47.3403 6.55114 47.5102 6.69584 47.6321 6.88958C47.7565 7.08092 47.8187 7.3213 47.8187 7.61071V9.41892C47.8187 9.54808 47.8295 9.68561 47.851 9.83151C47.8749 9.97741 47.9096 10.103 47.955 10.2082V10.2656H47.2626C47.2291 10.1891 47.2028 10.0874 47.1837 9.96067C47.1645 9.83151 47.155 9.71192 47.155 9.6019ZM47.2698 7.91208L47.277 8.37848H46.606C46.4171 8.37848 46.2485 8.39403 46.1002 8.42512C45.9519 8.45382 45.8275 8.49807 45.7271 8.55787C45.6266 8.61766 45.5501 8.69301 45.4974 8.7839C45.4448 8.87239 45.4185 8.97644 45.4185 9.09603C45.4185 9.21801 45.446 9.32923 45.501 9.42969C45.556 9.53014 45.6386 9.61027 45.7486 9.67006C45.861 9.72747 45.9985 9.75617 46.1612 9.75617C46.3645 9.75617 46.5439 9.71312 46.6993 9.62701C46.8548 9.5409 46.978 9.43567 47.0689 9.31129C47.1621 9.18692 47.2124 9.06613 47.2195 8.94893L47.503 9.26824C47.4862 9.36869 47.4408 9.47991 47.3666 9.6019C47.2925 9.72388 47.1932 9.84108 47.0689 9.95349C46.9469 10.0635 46.801 10.1556 46.6312 10.2297C46.4637 10.3015 46.2748 10.3374 46.0643 10.3374C45.8012 10.3374 45.5704 10.286 45.3719 10.1831C45.1757 10.0803 45.0227 9.94273 44.9126 9.77052C44.805 9.59592 44.7512 9.40098 44.7512 9.18572C44.7512 8.97763 44.7919 8.79466 44.8732 8.6368C44.9545 8.47655 45.0717 8.3438 45.2248 8.23856C45.3779 8.13093 45.562 8.04961 45.7773 7.9946C45.9925 7.93958 46.2329 7.91208 46.4984 7.91208H47.2698ZM50.3875 6.38371V10.2656H49.7202V6.38371H50.3875ZM51.6899 6.38371V6.92187H48.443V6.38371H51.6899ZM52.8882 7.71834H54.0542C54.3675 7.71834 54.6318 7.77335 54.847 7.88338C55.0623 7.99101 55.225 8.1405 55.335 8.33184C55.4474 8.5208 55.5036 8.73606 55.5036 8.97763C55.5036 9.15702 55.4725 9.32564 55.4103 9.4835C55.3481 9.63897 55.2549 9.7753 55.1305 9.8925C55.0085 10.0097 54.8566 10.1018 54.6748 10.1688C54.4955 10.2333 54.2886 10.2656 54.0542 10.2656H52.4038V6.38371H53.0675V9.72029H54.0542C54.2455 9.72029 54.3986 9.68561 54.5134 9.61625C54.6282 9.54688 54.7107 9.45719 54.7609 9.34717C54.8112 9.23714 54.8363 9.12234 54.8363 9.00275C54.8363 8.88555 54.8112 8.77074 54.7609 8.65833C54.7107 8.54591 54.6282 8.45263 54.5134 8.37848C54.3986 8.30194 54.2455 8.26368 54.0542 8.26368H52.8882V7.71834ZM58.8725 9.21442L60.6627 6.38371H61.3301V10.2656H60.6627V7.43491L58.8725 10.2656H58.2123V6.38371H58.8725V9.21442ZM63.8451 8.41077H63.1311V8.00177H63.7912C63.9754 8.00177 64.1213 7.97905 64.2289 7.93361C64.3366 7.88577 64.4131 7.81999 64.4586 7.73628C64.504 7.65257 64.5267 7.5545 64.5267 7.44209C64.5267 7.34163 64.5004 7.24715 64.4478 7.15866C64.3976 7.06777 64.3162 6.99482 64.2038 6.93981C64.0914 6.8824 63.9407 6.8537 63.7518 6.8537C63.5987 6.8537 63.46 6.88121 63.3356 6.93622C63.2112 6.98884 63.112 7.06179 63.0378 7.15507C62.9661 7.24596 62.9302 7.34881 62.9302 7.46361H62.2665C62.2665 7.22682 62.3334 7.02352 62.4674 6.8537C62.6037 6.68149 62.7843 6.54874 63.0091 6.45546C63.2363 6.36218 63.4839 6.31554 63.7518 6.31554C63.9766 6.31554 64.1775 6.34066 64.3545 6.39088C64.5339 6.43872 64.6858 6.51048 64.8102 6.60615C64.9345 6.69943 65.029 6.81663 65.0936 6.95774C65.1606 7.09647 65.194 7.25792 65.194 7.44209C65.194 7.57364 65.1629 7.69801 65.1008 7.81521C65.0386 7.93241 64.9489 8.03645 64.8317 8.12734C64.7145 8.21584 64.5722 8.2852 64.4047 8.33543C64.2397 8.38566 64.0531 8.41077 63.8451 8.41077ZM63.1311 8.15963H63.8451C64.0771 8.15963 64.2816 8.18235 64.4586 8.2278C64.6356 8.27085 64.7838 8.33543 64.9034 8.42154C65.023 8.50764 65.1127 8.61408 65.1725 8.74084C65.2347 8.86522 65.2658 9.00873 65.2658 9.17137C65.2658 9.35315 65.2287 9.51699 65.1546 9.66289C65.0828 9.8064 64.98 9.92838 64.846 10.0288C64.7121 10.1293 64.5518 10.2058 64.3653 10.2584C64.1811 10.3111 63.9766 10.3374 63.7518 10.3374C63.5006 10.3374 63.2567 10.2943 63.0199 10.2082C62.7831 10.1221 62.5882 9.98937 62.4351 9.80998C62.282 9.62821 62.2055 9.3974 62.2055 9.11755H62.8692C62.8692 9.23475 62.9063 9.34597 62.9804 9.45121C63.0546 9.55645 63.1574 9.64136 63.289 9.70594C63.4229 9.77052 63.5772 9.80281 63.7518 9.80281C63.9383 9.80281 64.0938 9.77411 64.2182 9.7167C64.3426 9.6593 64.4358 9.58276 64.498 9.48709C64.5626 9.39142 64.5949 9.28737 64.5949 9.17496C64.5949 9.02906 64.5662 8.91186 64.5088 8.82336C64.4514 8.73486 64.3629 8.67028 64.2433 8.62962C64.1261 8.58657 63.9754 8.56504 63.7912 8.56504H63.1311V8.15963ZM66.0981 9.91403C66.0981 9.80161 66.1328 9.70714 66.2022 9.6306C66.2739 9.55167 66.3768 9.5122 66.5107 9.5122C66.6447 9.5122 66.7463 9.55167 66.8157 9.6306C66.8874 9.70714 66.9233 9.80161 66.9233 9.91403C66.9233 10.0241 66.8874 10.1173 66.8157 10.1939C66.7463 10.2704 66.6447 10.3087 66.5107 10.3087C66.3768 10.3087 66.2739 10.2704 66.2022 10.1939C66.1328 10.1173 66.0981 10.0241 66.0981 9.91403ZM66.1017 6.74607C66.1017 6.63365 66.1364 6.53918 66.2058 6.46264C66.2775 6.38371 66.3804 6.34424 66.5143 6.34424C66.6483 6.34424 66.7499 6.38371 66.8193 6.46264C66.891 6.53918 66.9269 6.63365 66.9269 6.74607C66.9269 6.85609 66.891 6.94937 66.8193 7.02591C66.7499 7.10245 66.6483 7.14072 66.5143 7.14072C66.3804 7.14072 66.2775 7.10245 66.2058 7.02591C66.1364 6.94937 66.1017 6.85609 66.1017 6.74607Z" fill="#4097E3"/>
<path d="M34.5537 19.0163V21.991C34.4532 22.1398 34.2932 22.3072 34.0737 22.4932C33.8542 22.6756 33.551 22.8355 33.164 22.9732C32.7808 23.1071 32.286 23.1741 31.6795 23.1741C31.1847 23.1741 30.7289 23.0885 30.3122 22.9174C29.8992 22.7425 29.5402 22.4895 29.2351 22.1584C28.9337 21.8235 28.6993 21.418 28.5319 20.9418C28.3682 20.4618 28.2863 19.9186 28.2863 19.3121V18.6815C28.2863 18.075 28.357 17.5337 28.4984 17.0574C28.6435 16.5812 28.8556 16.1775 29.1346 15.8464C29.4137 15.5115 29.756 15.2585 30.1615 15.0874C30.5671 14.9125 31.0321 14.8251 31.5567 14.8251C32.1781 14.8251 32.6971 14.933 33.1138 15.1488C33.5342 15.3609 33.8617 15.6548 34.0961 16.0306C34.3342 16.4063 34.4867 16.8342 34.5537 17.3142H33.4766C33.4282 17.0202 33.3315 16.7524 33.1864 16.5105C33.045 16.2687 32.8422 16.0752 32.5781 15.9301C32.3139 15.7813 31.9735 15.7069 31.5567 15.7069C31.181 15.7069 30.8554 15.7757 30.5801 15.9134C30.3048 16.051 30.0778 16.2482 29.8992 16.5049C29.7206 16.7617 29.5867 17.0723 29.4974 17.437C29.4118 17.8016 29.369 18.2127 29.369 18.6703V19.3121C29.369 19.7809 29.423 20.1995 29.5309 20.5678C29.6425 20.9362 29.8006 21.2506 30.0053 21.511C30.2099 21.7677 30.4536 21.9631 30.7364 22.097C31.0228 22.2309 31.3391 22.2979 31.6851 22.2979C32.0683 22.2979 32.379 22.2663 32.6171 22.203C32.8552 22.1361 33.0413 22.0579 33.1752 21.9686C33.3092 21.8756 33.4115 21.7882 33.4822 21.7063V19.887H31.6014V19.0163H34.5537ZM35.9099 20.1102V19.9818C35.9099 19.5465 35.9731 19.1428 36.0996 18.7708C36.2261 18.395 36.4084 18.0695 36.6465 17.7941C36.8846 17.5151 37.173 17.2993 37.5116 17.1467C37.8501 16.9905 38.2296 16.9123 38.6501 16.9123C39.0742 16.9123 39.4556 16.9905 39.7942 17.1467C40.1365 17.2993 40.4267 17.5151 40.6648 17.7941C40.9066 18.0695 41.0908 18.395 41.2173 18.7708C41.3438 19.1428 41.407 19.5465 41.407 19.9818V20.1102C41.407 20.5455 41.3438 20.9492 41.2173 21.3213C41.0908 21.6933 40.9066 22.0189 40.6648 22.2979C40.4267 22.5732 40.1383 22.789 39.7997 22.9453C39.4649 23.0978 39.0854 23.1741 38.6612 23.1741C38.2371 23.1741 37.8557 23.0978 37.5172 22.9453C37.1786 22.789 36.8884 22.5732 36.6465 22.2979C36.4084 22.0189 36.2261 21.6933 36.0996 21.3213C35.9731 20.9492 35.9099 20.5455 35.9099 20.1102ZM36.9423 19.9818V20.1102C36.9423 20.4116 36.9777 20.6962 37.0484 20.9641C37.119 21.2282 37.2251 21.4626 37.3665 21.6673C37.5116 21.8719 37.692 22.0338 37.9078 22.1528C38.1236 22.2682 38.3747 22.3258 38.6612 22.3258C38.944 22.3258 39.1914 22.2682 39.4035 22.1528C39.6193 22.0338 39.7979 21.8719 39.9393 21.6673C40.0806 21.4626 40.1867 21.2282 40.2574 20.9641C40.3318 20.6962 40.369 20.4116 40.369 20.1102V19.9818C40.369 19.6842 40.3318 19.4033 40.2574 19.1391C40.1867 18.8712 40.0788 18.635 39.9337 18.4304C39.7923 18.222 39.6137 18.0583 39.3979 17.9392C39.1858 17.8202 38.9366 17.7606 38.6501 17.7606C38.3673 17.7606 38.118 17.8202 37.9022 17.9392C37.6902 18.0583 37.5116 18.222 37.3665 18.4304C37.2251 18.635 37.119 18.8712 37.0484 19.1391C36.9777 19.4033 36.9423 19.6842 36.9423 19.9818ZM42.4283 20.1102V19.9818C42.4283 19.5465 42.4916 19.1428 42.6181 18.7708C42.7446 18.395 42.9269 18.0695 43.165 17.7941C43.4031 17.5151 43.6915 17.2993 44.0301 17.1467C44.3686 16.9905 44.7481 16.9123 45.1686 16.9123C45.5927 16.9123 45.9741 16.9905 46.3127 17.1467C46.6549 17.2993 46.9452 17.5151 47.1833 17.7941C47.4251 18.0695 47.6093 18.395 47.7358 18.7708C47.8623 19.1428 47.9255 19.5465 47.9255 19.9818V20.1102C47.9255 20.5455 47.8623 20.9492 47.7358 21.3213C47.6093 21.6933 47.4251 22.0189 47.1833 22.2979C46.9452 22.5732 46.6568 22.789 46.3182 22.9453C45.9834 23.0978 45.6039 23.1741 45.1797 23.1741C44.7556 23.1741 44.3742 23.0978 44.0356 22.9453C43.6971 22.789 43.4069 22.5732 43.165 22.2979C42.9269 22.0189 42.7446 21.6933 42.6181 21.3213C42.4916 20.9492 42.4283 20.5455 42.4283 20.1102ZM43.4608 19.9818V20.1102C43.4608 20.4116 43.4962 20.6962 43.5668 20.9641C43.6375 21.2282 43.7436 21.4626 43.885 21.6673C44.0301 21.8719 44.2105 22.0338 44.4263 22.1528C44.6421 22.2682 44.8932 22.3258 45.1797 22.3258C45.4625 22.3258 45.7099 22.2682 45.922 22.1528C46.1378 22.0338 46.3164 21.8719 46.4578 21.6673C46.5991 21.4626 46.7052 21.2282 46.7759 20.9641C46.8503 20.6962 46.8875 20.4116 46.8875 20.1102V19.9818C46.8875 19.6842 46.8503 19.4033 46.7759 19.1391C46.7052 18.8712 46.5973 18.635 46.4522 18.4304C46.3108 18.222 46.1322 18.0583 45.9164 17.9392C45.7043 17.8202 45.4551 17.7606 45.1686 17.7606C44.8858 17.7606 44.6365 17.8202 44.4207 17.9392C44.2087 18.0583 44.0301 18.222 43.885 18.4304C43.7436 18.635 43.6375 18.8712 43.5668 19.1391C43.4962 19.4033 43.4608 19.6842 43.4608 19.9818ZM53.1325 17.024H54.0701V22.9341C54.0701 23.4662 53.9622 23.9201 53.7464 24.2959C53.5306 24.6717 53.2293 24.9563 52.8423 25.1498C52.4591 25.3469 52.0163 25.4455 51.5141 25.4455C51.3057 25.4455 51.0601 25.4121 50.7774 25.3451C50.4983 25.2818 50.223 25.1721 49.9514 25.0158C49.6835 24.8633 49.4584 24.6568 49.2761 24.3963L49.8175 23.7824C50.0705 24.0875 50.3346 24.2996 50.6099 24.4187C50.889 24.5377 51.1643 24.5972 51.4359 24.5972C51.7633 24.5972 52.0461 24.5359 52.2842 24.4131C52.5223 24.2903 52.7065 24.108 52.8367 23.8661C52.9707 23.628 53.0376 23.3341 53.0376 22.9844V18.3522L53.1325 17.024ZM48.9747 20.1102V19.993C48.9747 19.5316 49.0287 19.1131 49.1366 18.7373C49.2482 18.3578 49.4063 18.0322 49.611 17.7606C49.8193 17.489 50.0705 17.2807 50.3644 17.1356C50.6583 16.9868 50.9894 16.9123 51.3578 16.9123C51.7373 16.9123 52.0684 16.9793 52.3512 17.1133C52.6377 17.2435 52.8795 17.4351 53.0767 17.6881C53.2776 17.9374 53.4357 18.2387 53.5511 18.5922C53.6664 18.9457 53.7464 19.3456 53.7911 19.7921V20.3055C53.7501 20.7483 53.6701 21.1464 53.5511 21.4998C53.4357 21.8533 53.2776 22.1547 53.0767 22.404C52.8795 22.6532 52.6377 22.8448 52.3512 22.9788C52.0647 23.109 51.7298 23.1741 51.3466 23.1741C50.9857 23.1741 50.6583 23.0978 50.3644 22.9453C50.0742 22.7928 49.8249 22.5788 49.6165 22.3035C49.4082 22.0282 49.2482 21.7045 49.1366 21.3324C49.0287 20.9566 48.9747 20.5492 48.9747 20.1102ZM50.0072 19.993V20.1102C50.0072 20.4116 50.037 20.6943 50.0965 20.9585C50.1598 21.2227 50.2546 21.4552 50.3811 21.6561C50.5114 21.857 50.6769 22.0152 50.8778 22.1305C51.0787 22.2421 51.3187 22.2979 51.5978 22.2979C51.9401 22.2979 52.2228 22.2254 52.4461 22.0803C52.6693 21.9352 52.846 21.7435 52.9762 21.5054C53.1102 21.2673 53.2144 21.0087 53.2888 20.7297V19.3847C53.2479 19.1801 53.1846 18.9829 53.099 18.7931C53.0172 18.5996 52.9093 18.4285 52.7753 18.2797C52.6451 18.1271 52.4833 18.0062 52.2898 17.9169C52.0963 17.8276 51.8694 17.783 51.6089 17.783C51.3262 17.783 51.0825 17.8425 50.8778 17.9616C50.6769 18.0769 50.5114 18.2369 50.3811 18.4415C50.2546 18.6424 50.1598 18.8768 50.0965 19.1447C50.037 19.4089 50.0072 19.6916 50.0072 19.993ZM56.7601 14.4902V23.0625H55.7221V14.4902H56.7601ZM60.9235 23.1741C60.503 23.1741 60.1217 23.1034 59.7794 22.962C59.4408 22.8169 59.1487 22.6142 58.9032 22.3537C58.6613 22.0933 58.4753 21.7845 58.3451 21.4273C58.2149 21.0701 58.1497 20.6795 58.1497 20.2553V20.0209C58.1497 19.5298 58.2223 19.0926 58.3674 18.7094C58.5125 18.3225 58.7097 17.995 58.959 17.7272C59.2083 17.4593 59.491 17.2565 59.8073 17.1188C60.1235 16.9812 60.4509 16.9123 60.7895 16.9123C61.2211 16.9123 61.5932 16.9868 61.9057 17.1356C62.2219 17.2844 62.4805 17.4928 62.6814 17.7606C62.8824 18.0248 63.0312 18.3373 63.1279 18.6982C63.2246 19.0554 63.273 19.4461 63.273 19.8702V20.3334H58.7636V19.4907H62.2405V19.4126C62.2257 19.1447 62.1699 18.8843 62.0731 18.6313C61.9801 18.3783 61.8313 18.1699 61.6266 18.0062C61.422 17.8425 61.143 17.7606 60.7895 17.7606C60.5551 17.7606 60.3393 17.8109 60.1421 17.9113C59.9449 18.0081 59.7756 18.1532 59.6343 18.3466C59.4929 18.5401 59.3831 18.7764 59.305 19.0554C59.2269 19.3345 59.1878 19.6563 59.1878 20.0209V20.2553C59.1878 20.5418 59.2269 20.8115 59.305 21.0645C59.3868 21.3138 59.504 21.5333 59.6566 21.7231C59.8129 21.9128 60.0007 22.0617 60.2203 22.1696C60.4435 22.2775 60.6965 22.3314 60.9793 22.3314C61.3439 22.3314 61.6527 22.257 61.9057 22.1082C62.1587 21.9593 62.3801 21.7603 62.5698 21.511L63.1949 22.0077C63.0647 22.2049 62.8991 22.3928 62.6982 22.5714C62.4973 22.75 62.2498 22.8951 61.9559 23.0067C61.6657 23.1183 61.3216 23.1741 60.9235 23.1741ZM70.4668 19.8758H68.2958V18.9996H70.4668C70.8872 18.9996 71.2277 18.9326 71.4881 18.7987C71.7485 18.6647 71.9383 18.4787 72.0574 18.2406C72.1801 18.0025 72.2415 17.7309 72.2415 17.4258C72.2415 17.1467 72.1801 16.8844 72.0574 16.6389C71.9383 16.3933 71.7485 16.1961 71.4881 16.0473C71.2277 15.8948 70.8872 15.8185 70.4668 15.8185H68.547V23.0625H67.4699V14.9367H70.4668C71.0807 14.9367 71.5997 15.0427 72.0239 15.2548C72.448 15.4669 72.7698 15.7608 72.9894 16.1366C73.2089 16.5087 73.3186 16.9347 73.3186 17.4146C73.3186 17.9355 73.2089 18.3801 72.9894 18.7485C72.7698 19.1168 72.448 19.3977 72.0239 19.5912C71.5997 19.7809 71.0807 19.8758 70.4668 19.8758ZM75.6459 14.4902V23.0625H74.6078V14.4902H75.6459ZM80.864 22.03V18.9215C80.864 18.6834 80.8156 18.4769 80.7189 18.302C80.6259 18.1234 80.4845 17.9857 80.2948 17.889C80.105 17.7923 79.8706 17.7439 79.5916 17.7439C79.3311 17.7439 79.1023 17.7885 78.9051 17.8778C78.7116 17.9671 78.5591 18.0843 78.4475 18.2294C78.3396 18.3745 78.2856 18.5308 78.2856 18.6982H77.2532C77.2532 18.4824 77.309 18.2685 77.4206 18.0564C77.5322 17.8444 77.6922 17.6527 77.9006 17.4816C78.1126 17.3067 78.3656 17.1691 78.6596 17.0686C78.9572 16.9644 79.2883 16.9123 79.653 16.9123C80.092 16.9123 80.4789 16.9868 80.8138 17.1356C81.1524 17.2844 81.4165 17.5095 81.6063 17.8109C81.7997 18.1085 81.8965 18.4824 81.8965 18.9326V21.7454C81.8965 21.9463 81.9132 22.1603 81.9467 22.3872C81.9839 22.6142 82.0379 22.8095 82.1086 22.9732V23.0625H81.0314C80.9794 22.9434 80.9384 22.7853 80.9087 22.5881C80.8789 22.3872 80.864 22.2012 80.864 22.03ZM81.0426 19.4014L81.0538 20.1269H80.0101C79.7162 20.1269 79.4539 20.1511 79.2232 20.1995C78.9926 20.2441 78.7991 20.313 78.6428 20.406C78.4866 20.499 78.3675 20.6162 78.2856 20.7576C78.2038 20.8952 78.1629 21.0571 78.1629 21.2431C78.1629 21.4329 78.2056 21.6059 78.2912 21.7621C78.3768 21.9184 78.5052 22.0431 78.6763 22.1361C78.8512 22.2254 79.0651 22.27 79.3181 22.27C79.6344 22.27 79.9134 22.203 80.1552 22.0691C80.3971 21.9352 80.5887 21.7715 80.7301 21.578C80.8752 21.3845 80.9533 21.1966 80.9645 21.0143L81.4054 21.511C81.3793 21.6673 81.3086 21.8403 81.1933 22.03C81.078 22.2198 80.9235 22.4021 80.7301 22.577C80.5403 22.7481 80.3134 22.8914 80.0492 23.0067C79.7888 23.1183 79.4948 23.1741 79.1674 23.1741C78.7582 23.1741 78.3991 23.0941 78.0903 22.9341C77.7852 22.7742 77.5471 22.5602 77.376 22.2923C77.2085 22.0207 77.1248 21.7175 77.1248 21.3826C77.1248 21.059 77.1881 20.7743 77.3146 20.5288C77.4411 20.2795 77.6234 20.073 77.8615 19.9093C78.0996 19.7419 78.3861 19.6154 78.721 19.5298C79.0558 19.4442 79.4297 19.4014 79.8427 19.4014H81.0426ZM85.1278 22.4374L86.8077 17.024H87.9127L85.4906 23.9945C85.4348 24.1433 85.3604 24.3033 85.2673 24.4745C85.1781 24.6493 85.0627 24.8149 84.9213 24.9712C84.78 25.1274 84.6088 25.2539 84.4079 25.3507C84.2107 25.4511 83.9744 25.5014 83.6991 25.5014C83.6173 25.5014 83.5131 25.4902 83.3866 25.4679C83.2601 25.4455 83.1708 25.4269 83.1187 25.4121L83.1131 24.5749C83.1429 24.5786 83.1894 24.5824 83.2526 24.5861C83.3196 24.5935 83.3661 24.5972 83.3922 24.5972C83.6266 24.5972 83.8256 24.5656 83.9893 24.5024C84.153 24.4428 84.2907 24.3405 84.4023 24.1954C84.5176 24.054 84.6162 23.8587 84.6981 23.6094L85.1278 22.4374ZM83.8944 17.024L85.4627 21.7119L85.7306 22.8002L84.9883 23.1797L82.7671 17.024H83.8944Z" fill="#4097E3"/>
<mask id="mask0_6170_79047" style="mask-type:alpha" maskUnits="userSpaceOnUse" x="8" y="6" width="18" height="18">
<path d="M24.6314 14.4566C25.2056 14.7645 25.2056 15.5878 24.6314 15.8957L10.0311 23.723C9.48723 24.0146 8.82894 23.6206 8.82894 23.0035L8.82895 7.34879C8.82895 6.73169 9.48723 6.33769 10.0311 6.62926L24.6314 14.4566Z" fill="#4097E3"/>
</mask>
<g mask="url(#mask0_6170_79047)">
<path d="M24.6304 14.4566C25.2046 14.7645 25.2046 15.5878 24.6304 15.8957L10.0301 23.723C9.48625 24.0146 8.82797 23.6206 8.82797 23.0035L8.82797 7.34879C8.82797 6.73169 9.48625 6.33769 10.0301 6.62926L24.6304 14.4566Z" fill="#4097E3"/>
<path d="M9.64429 5.71484L17.5705 15.0858M17.5705 15.0858L21.074 19.2278L9.64429 25.3086L17.5705 15.0858ZM17.5705 15.0858L20.1215 11.7957" stroke="#9ECDF6" stroke-width="0.816406"/>
</g>
</svg>
