<svg width="50" height="50" viewBox="0 0 50 50" fill="none" xmlns="http://www.w3.org/2000/svg">
<g filter="url(#filter0_di_9047_336)">
<circle cx="25" cy="25" r="15" fill="url(#paint0_linear_9047_336)"/>
</g>
<path d="M28.9009 19.7423H20.5519C19.7685 19.7423 19.1312 20.4072 19.1312 21.2244V27.1037C19.1312 27.888 19.7183 28.5321 20.4581 28.5826C19.9365 29.5941 19.2447 30.2681 19.237 30.2756C18.9914 30.5115 19.2042 30.9364 19.53 30.8611C19.6378 30.8362 22.1197 30.2463 23.4282 28.5858H28.9009C29.6842 28.5858 30.3215 27.9209 30.3215 27.1037V21.2244C30.3216 20.4072 29.6843 19.7423 28.9009 19.7423ZM21.7868 22.4672C21.9678 22.4672 22.1146 22.6203 22.1146 22.8092C22.1146 22.9981 21.9678 23.1513 21.7868 23.1513C21.6057 23.1513 21.4589 22.9981 21.4589 22.8092C21.4589 22.6203 21.6057 22.4672 21.7868 22.4672ZM26.3219 25.8647H21.7868C21.6057 25.8647 21.4589 25.7116 21.4589 25.5227C21.4589 25.3338 21.6057 25.1807 21.7868 25.1807H26.3219C26.503 25.1807 26.6497 25.3338 26.6497 25.5227C26.6497 25.7116 26.5029 25.8647 26.3219 25.8647ZM27.6879 25.8647C27.5068 25.8647 27.36 25.7116 27.36 25.5227C27.36 25.3338 27.5068 25.1807 27.6879 25.1807C27.869 25.1807 28.0157 25.3338 28.0157 25.5227C28.0157 25.7116 27.869 25.8647 27.6879 25.8647ZM27.6879 24.4966H21.7868C21.6057 24.4966 21.4589 24.3435 21.4589 24.1546C21.4589 23.9657 21.6057 23.8125 21.7868 23.8125H27.6879C27.869 23.8125 28.0157 23.9657 28.0157 24.1546C28.0157 24.3435 27.869 24.4966 27.6879 24.4966ZM27.6879 23.1285H23.0872C22.9061 23.1285 22.7593 22.9753 22.7593 22.7864C22.7593 22.5975 22.9061 22.4444 23.0872 22.4444H27.6879C27.869 22.4444 28.0157 22.5975 28.0157 22.7864C28.0157 22.9753 27.869 23.1285 27.6879 23.1285Z" fill="white"/>
<ellipse cx="29.0654" cy="20.2729" rx="1.80464" ry="1.79439" fill="#9EED97"/>
<defs>
<filter id="filter0_di_9047_336" x="0" y="0" width="50" height="50" filterUnits="userSpaceOnUse" color-interpolation-filters="sRGB">
<feFlood flood-opacity="0" result="BackgroundImageFix"/>
<feColorMatrix in="SourceAlpha" type="matrix" values="0 0 0 0 0 0 0 0 0 0 0 0 0 0 0 0 0 0 127 0" result="hardAlpha"/>
<feOffset/>
<feGaussianBlur stdDeviation="5"/>
<feColorMatrix type="matrix" values="0 0 0 0 0.55947 0 0 0 0 0.798953 0 0 0 0 1 0 0 0 0.8 0"/>
<feBlend mode="normal" in2="BackgroundImageFix" result="effect1_dropShadow_9047_336"/>
<feBlend mode="normal" in="SourceGraphic" in2="effect1_dropShadow_9047_336" result="shape"/>
<feColorMatrix in="SourceAlpha" type="matrix" values="0 0 0 0 0 0 0 0 0 0 0 0 0 0 0 0 0 0 127 0" result="hardAlpha"/>
<feOffset dx="-5" dy="-5"/>
<feGaussianBlur stdDeviation="5"/>
<feComposite in2="hardAlpha" operator="arithmetic" k2="-1" k3="1"/>
<feColorMatrix type="matrix" values="0 0 0 0 1 0 0 0 0 1 0 0 0 0 1 0 0 0 0.1 0"/>
<feBlend mode="normal" in2="shape" result="effect2_innerShadow_9047_336"/>
</filter>
<linearGradient id="paint0_linear_9047_336" x1="27.0455" y1="-2.61364" x2="25.6818" y2="32.8409" gradientUnits="userSpaceOnUse">
<stop stop-color="#4FA2E7"/>
<stop offset="1" stop-color="#6AB8FA"/>
</linearGradient>
</defs>
</svg>
