<svg width="50" height="50" viewBox="0 0 50 50" fill="none" xmlns="http://www.w3.org/2000/svg">
<g filter="url(#filter0_di_9047_355)">
<circle cx="25" cy="25" r="15" fill="url(#paint0_linear_9047_355)"/>
</g>
<path fill-rule="evenodd" clip-rule="evenodd" d="M23.7708 21.6C23.5795 21.9389 23.0914 21.9389 22.9 21.6L21.5584 19.2237C21.3746 18.8982 21.5999 18.4972 21.9671 18.4786L24.7038 18.4786C25.0709 18.4972 25.2963 18.8982 25.1125 19.2237L23.7708 21.6ZM26.0833 26.2641L29.2167 19.9215C29.5451 19.2569 29.0615 18.4786 28.3202 18.4786L24.7038 18.4786C24.6949 18.4781 24.6861 18.4779 24.6771 18.4779H21.9938C21.9848 18.4779 21.9759 18.4781 21.9671 18.4786L21.6473 18.4786C20.906 18.4786 20.4224 19.2569 20.7507 19.9215L23.8851 26.2661V30.1598C23.8851 30.5908 24.394 30.8199 24.7166 30.5342L25.9148 29.4731C26.0219 29.3782 26.0833 29.2419 26.0833 29.0988V26.2641Z" fill="white"/>
<defs>
<filter id="filter0_di_9047_355" x="0" y="0" width="50" height="50" filterUnits="userSpaceOnUse" color-interpolation-filters="sRGB">
<feFlood flood-opacity="0" result="BackgroundImageFix"/>
<feColorMatrix in="SourceAlpha" type="matrix" values="0 0 0 0 0 0 0 0 0 0 0 0 0 0 0 0 0 0 127 0" result="hardAlpha"/>
<feOffset/>
<feGaussianBlur stdDeviation="5"/>
<feColorMatrix type="matrix" values="0 0 0 0 0.55947 0 0 0 0 0.798953 0 0 0 0 1 0 0 0 0.8 0"/>
<feBlend mode="normal" in2="BackgroundImageFix" result="effect1_dropShadow_9047_355"/>
<feBlend mode="normal" in="SourceGraphic" in2="effect1_dropShadow_9047_355" result="shape"/>
<feColorMatrix in="SourceAlpha" type="matrix" values="0 0 0 0 0 0 0 0 0 0 0 0 0 0 0 0 0 0 127 0" result="hardAlpha"/>
<feOffset dx="-5" dy="-5"/>
<feGaussianBlur stdDeviation="5"/>
<feComposite in2="hardAlpha" operator="arithmetic" k2="-1" k3="1"/>
<feColorMatrix type="matrix" values="0 0 0 0 1 0 0 0 0 1 0 0 0 0 1 0 0 0 0.1 0"/>
<feBlend mode="normal" in2="shape" result="effect2_innerShadow_9047_355"/>
</filter>
<linearGradient id="paint0_linear_9047_355" x1="27.0455" y1="-2.61364" x2="25.6818" y2="32.8409" gradientUnits="userSpaceOnUse">
<stop stop-color="#4FA2E7"/>
<stop offset="1" stop-color="#6AB8FA"/>
</linearGradient>
</defs>
</svg>
