<svg width="50" height="50" viewBox="0 0 50 50" fill="none" xmlns="http://www.w3.org/2000/svg">
<g filter="url(#filter0_di_9047_363)">
<circle cx="25" cy="25" r="15" fill="url(#paint0_linear_9047_363)"/>
</g>
<path d="M31.2182 24.2423L30.2538 24.0856C30.1329 23.6041 29.9429 23.1468 29.6873 22.7203L30.2418 21.9436C30.3449 21.7993 30.3286 21.6014 30.2031 21.476L29.1764 20.4493C29.0502 20.3234 28.8528 20.3067 28.7088 20.4106L27.9321 20.9651C27.5056 20.7095 27.0482 20.5195 26.5668 20.3986L26.4101 19.4342C26.3811 19.2591 26.2297 19.1307 26.0521 19.1307H24.6C24.4224 19.1307 24.271 19.2591 24.2419 19.4342L24.0852 20.3986C23.6038 20.5195 23.1464 20.7095 22.72 20.9651L21.9432 20.4106C21.7989 20.3068 21.6007 20.3234 21.4756 20.4493L20.4489 21.476C20.3234 21.6015 20.3071 21.7993 20.4103 21.9436L20.9647 22.7203C20.7091 23.1468 20.5191 23.6041 20.3982 24.0856L19.4338 24.2423C19.2587 24.2713 19.1304 24.4227 19.1304 24.6003V26.0524C19.1304 26.2301 19.2587 26.3814 19.4338 26.4105L20.3982 26.5672C20.5191 27.0487 20.7091 27.506 20.9647 27.9325L20.4103 28.7092C20.3071 28.8535 20.3234 29.0513 20.4489 29.1768L21.4756 30.2035C21.6008 30.3287 21.7989 30.3446 21.9432 30.2422L22.72 29.6877C23.1465 29.9433 23.6038 30.1333 24.0852 30.2542L24.2419 31.2186C24.271 31.3937 24.4224 31.522 24.6 31.522H26.0521C26.2297 31.522 26.3811 31.3937 26.4101 31.2186L26.5668 30.2542C27.0483 30.1333 27.5056 29.9433 27.9321 29.6877L28.7088 30.2421C28.8528 30.3446 29.0502 30.3286 29.1765 30.2035L30.2031 29.1768C30.3286 29.0513 30.3449 28.8535 30.2418 28.7092L29.6873 27.9324C29.9429 27.506 30.133 27.0486 30.2538 26.5672L31.2182 26.4105C31.3933 26.3814 31.5217 26.2301 31.5217 26.0524V24.6003C31.5217 24.4227 31.3933 24.2713 31.2182 24.2423ZM25.326 29.3197C23.1241 29.3197 21.3327 27.5283 21.3327 25.3264C21.3327 23.1245 23.1241 21.3331 25.326 21.3331C27.5279 21.3331 29.3193 23.1245 29.3193 25.3264C29.3193 27.5283 27.5279 29.3197 25.326 29.3197Z" fill="white"/>
<defs>
<filter id="filter0_di_9047_363" x="0" y="0" width="50" height="50" filterUnits="userSpaceOnUse" color-interpolation-filters="sRGB">
<feFlood flood-opacity="0" result="BackgroundImageFix"/>
<feColorMatrix in="SourceAlpha" type="matrix" values="0 0 0 0 0 0 0 0 0 0 0 0 0 0 0 0 0 0 127 0" result="hardAlpha"/>
<feOffset/>
<feGaussianBlur stdDeviation="5"/>
<feColorMatrix type="matrix" values="0 0 0 0 0.55947 0 0 0 0 0.798953 0 0 0 0 1 0 0 0 0.8 0"/>
<feBlend mode="normal" in2="BackgroundImageFix" result="effect1_dropShadow_9047_363"/>
<feBlend mode="normal" in="SourceGraphic" in2="effect1_dropShadow_9047_363" result="shape"/>
<feColorMatrix in="SourceAlpha" type="matrix" values="0 0 0 0 0 0 0 0 0 0 0 0 0 0 0 0 0 0 127 0" result="hardAlpha"/>
<feOffset dx="-5" dy="-5"/>
<feGaussianBlur stdDeviation="5"/>
<feComposite in2="hardAlpha" operator="arithmetic" k2="-1" k3="1"/>
<feColorMatrix type="matrix" values="0 0 0 0 1 0 0 0 0 1 0 0 0 0 1 0 0 0 0.1 0"/>
<feBlend mode="normal" in2="shape" result="effect2_innerShadow_9047_363"/>
</filter>
<linearGradient id="paint0_linear_9047_363" x1="27.0455" y1="-2.61364" x2="25.6818" y2="32.8409" gradientUnits="userSpaceOnUse">
<stop stop-color="#4FA2E7"/>
<stop offset="1" stop-color="#6AB8FA"/>
</linearGradient>
</defs>
</svg>
