<svg width="1160" height="477" viewBox="0 0 1160 477" fill="none" xmlns="http://www.w3.org/2000/svg">
<path d="M1149.45 27.4374C1145.39 24.3888 1140.2 23.1517 1135.15 23.4168C1118.84 24.3447 1106.19 32.7836 1094.81 43.4316C1065.16 71.2667 1047.24 107.541 1031.42 144.963C1030.15 147.968 1029.11 151.016 1027.97 154.065C1026.45 158.174 1024.53 159.941 1020.38 159.765C1015.68 159.544 1010.97 159.544 1006.26 159.765C993.526 160.427 982.625 176.907 987.509 188.881C988.555 191.444 992.479 193.653 995.488 194.404C999.979 195.553 1004.82 195.42 1009.53 195.464C1012.97 195.508 1013.58 196.834 1012.89 200.059C1009.7 214.198 1006.78 228.336 1003.69 242.475C1003.38 243.8 1002.94 245.391 1002.03 246.186C989.427 256.746 976.739 267.217 964.007 277.6C961.74 279.456 958.949 280.737 956.333 282.062C955.374 282.548 954.109 282.372 953.019 282.46C953.063 281.444 953.063 280.427 953.15 279.411C953.586 272.254 955.461 264.831 954.109 258.027C952.191 248.13 946.609 238.807 942.903 229.441C941.334 225.508 939.241 221.841 936.93 218.351C931.61 210.31 931.654 202.092 935.927 194.36C939.59 187.732 943.906 181.502 947.743 175.008C952.758 166.48 948.79 158.837 938.979 158.483C923.239 157.865 911.946 164.139 903.443 177.791C885.522 206.642 867.427 235.582 842.269 258.778C824.915 274.772 804.509 285.509 780.964 288.601C770.761 289.927 760.645 288.513 752.84 280.427C749.657 277.114 750.878 273.093 755.326 271.944C775.862 266.466 795.876 259.706 812.314 245.391C827.706 232.003 836.819 215.258 837.167 194.448C837.473 178.012 825.002 164.448 808.869 162.813C786.24 160.516 766.662 168.027 749.09 181.768C735.312 192.504 724.629 205.936 717.13 221.797C714.775 226.746 711.592 228.601 706.622 228.557C694.936 228.469 683.294 228.69 671.609 228.38C665.94 228.248 661.362 230.015 657.569 234.124C654.822 237.084 652.075 240.045 649.502 243.137C644.401 249.367 642.395 256.392 642.482 264.654C642.962 298.145 640.695 331.414 633.021 364.065C631.189 371.93 628.181 379.529 625.608 387.173C625.128 388.631 624.387 390.31 623.254 391.238C621.248 392.917 618.85 394.154 616.582 395.568C615.798 393.182 614.141 390.752 614.402 388.454C616.277 370.56 618.021 352.622 620.768 334.861C626.131 300.31 633.326 266.156 644.139 232.887C645.055 230.059 646.755 227.541 649.023 225.641C681.332 198.248 712.028 169.264 737.361 134.934C755.587 110.28 770.63 83.8146 776.647 53.1959C778.304 44.8012 778.74 36.0531 778.522 27.4816C778.173 14.1826 772.418 3.93226 758.247 0.176731C755.369 0.132548 752.535 0.0441827 749.657 0C722.493 6.27394 705.27 25.5818 689.529 46.5244C660.839 84.6098 639.823 127.069 622.905 171.561C613.225 197.099 605.42 223.343 596.482 249.19C595.61 251.665 593.124 254.89 590.944 256.348C578.387 264.566 565.611 272.43 552.879 280.383C551.44 281.267 549.827 281.885 548.301 282.592C548.65 280.958 548.737 279.235 549.304 277.644C560.51 247.379 571.803 217.114 583.009 186.849C584.709 182.209 586.322 177.526 587.587 172.754C589.2 166.569 587.238 163.432 581.134 162.769C562.472 160.648 554.187 167.011 546.601 181.149C534.871 203.019 522.924 224.757 510.105 245.965C505.004 254.404 497.679 261.561 490.833 268.852C488.13 271.724 484.336 275.567 479.889 273.005C475.18 270.266 476.531 264.919 477.97 260.987C485.949 238.94 494.234 217.07 502.606 195.199C505.396 187.953 509.015 181.016 511.675 173.726C513.724 168.203 510.628 163.299 504.873 162.725C487.999 161.09 477.273 165.332 469.468 179.293C456.169 203.064 445.704 228.027 438.641 254.448C437.725 257.939 435.545 261.827 432.798 263.992C424.557 270.486 415.793 276.23 407.116 282.151C406.244 282.725 404.892 282.592 403.759 282.813C403.759 281.974 403.541 281.046 403.802 280.295C409.514 263.461 403.541 248.704 395.91 234.257C393.425 229.573 390.896 224.934 388.28 220.383C382.263 210 382.786 199.927 389.152 189.897C393.033 183.8 397.131 177.835 400.489 171.517C404.936 163.167 402.756 159.588 393.381 158.748C376.769 157.335 363.95 162.504 354.401 177.614C341.058 198.69 326.975 219.411 311.452 238.896C300.377 252.813 286.73 264.698 273.736 276.937C269.812 280.648 264.362 283.034 259.217 284.934C253.854 286.922 249.711 283.741 250.104 277.997C250.409 273.668 251.368 269.249 252.894 265.184C260.83 243.491 269.071 221.93 277.094 200.236C278.794 195.597 280.407 190.913 281.585 186.142C283.154 179.603 280.887 175.494 274.434 174.522C268.984 173.682 263.315 173.947 257.778 174.257C254.987 174.433 252.764 172.357 252.109 169.617C251.019 165.022 246.703 161.93 241.994 161.753C225.817 161.267 211.036 166.259 197.432 174.477C164.556 194.315 142.188 222.681 130.851 259.883C130.023 262.622 127.494 266.289 125.139 267.924C110.489 278.086 94.7918 286.171 76.9147 288.469C66.3629 289.794 55.8548 289.087 47.6575 280.737C42.4688 275.435 42.9484 273.712 49.8376 271.9C64.9241 268.012 79.6181 262.931 93.1349 255.022C114.238 242.651 127.973 225.022 131.418 199.971C134.165 179.868 122.479 164.625 102.684 162.769C77.1763 160.339 55.8548 170.059 37.4545 186.981C17.659 205.14 5.45031 227.629 0.654037 253.962C0.218012 257.276 0 260.722 0 264.168V273.756C0 280.295 0.915652 286.922 3.40099 292.975C8.93851 306.407 19.4903 315.332 34.6204 320.059C47.9191 324.213 61.5231 323.992 75.0834 322.445C93.0913 320.413 109.355 313.167 124.703 303.668C128.278 301.458 129.892 301.326 131.897 305.391C136.171 314.139 143.888 320.811 153.393 322.445C162.637 324.036 171.925 323.815 180.907 320.369C191.764 316.215 200.615 309.19 208.594 300.84C213.172 296.024 213.129 295.98 215.222 302.254C219.974 316.657 229.349 323.417 244.261 323.108C254.769 322.887 263.839 318.336 272.472 312.858C298.197 296.466 318.908 274.595 337.963 250.913C346.77 240 346.683 239.735 353.136 252.151C357.497 260.501 360.549 269.249 360.113 279.014C359.938 282.725 358.456 284.183 354.924 283.564C353.703 283.344 352.526 283.123 351.305 282.946C340.535 281.311 329.94 281.09 320.871 288.425C313.109 294.698 308.793 302.828 311.06 313.034C314.723 329.559 332.512 332.298 350.433 330.266C357.758 329.426 364.647 326.554 371.057 322.843C374.632 320.81 378.905 319.352 383.004 319.043C399.529 317.718 414.965 313.388 428.569 303.623C432.536 300.796 433.801 301.547 435.153 305.258C438.815 315.199 447.623 322.622 458.044 323.196C467.026 323.727 474.438 320.104 481.284 315.199C492.272 307.335 500.643 296.996 507.445 285.288C507.881 284.581 508.536 284.006 509.102 283.344C509.059 284.183 509.146 285.022 508.928 285.774C507.838 289.131 506.268 292.357 505.483 295.847C501.908 311.576 492.272 321.517 478.929 330.221C451.809 347.983 426.388 368.219 405.241 393.314C393.251 407.541 384.574 423.447 381.565 442.18C378.513 461.002 390.46 475.848 409.165 476.908C421.243 477.571 432.318 474.655 442.565 468.204C458.175 458.351 469.511 444.345 479.671 429.191C500.382 398.351 515.643 364.64 529.639 330.266C530.642 327.836 532.43 325.14 534.566 323.815C550.045 314.271 565.742 305.037 581.395 295.759C582.529 295.096 583.924 294.875 585.232 294.433C585.232 295.759 585.363 297.129 585.145 298.454C581.831 321.341 577.951 344.139 575.291 367.07C573.547 382.18 573.634 397.467 578.779 412.136C582.834 423.756 592.95 430.604 604.025 429.632C614.533 428.749 623.428 424.463 631.102 417.173C647.933 401.179 655.432 380.369 660.403 358.454C666.987 329.426 669.56 299.868 669.996 270.133C670.039 265.715 671.216 264.654 676.1 265.494C683.73 266.863 691.448 267.217 699.209 267.217C703.482 267.217 704.441 268.542 704.834 273.049C707.188 301.635 721.403 317.497 749.483 322.003C767.273 324.875 785.019 323.594 802.067 317.232C834.202 305.214 858.14 284.05 882.034 253.653C885.566 249.19 887.703 246.363 890.842 243.447C892.063 242.298 894.287 238.807 896.815 242.961C903.181 253.564 909.286 264.301 908.719 277.423C908.457 283.609 908.021 284.095 901.917 283.167C893.415 281.841 884.956 281.134 876.671 284.36C866.119 288.469 858.489 299.912 859.405 310.295C860.277 320.457 868.561 328.145 880.813 330.177C894.679 332.475 907.542 329.691 919.838 322.887C923.718 320.722 927.948 319.308 932.352 318.955C951.667 317.408 969.108 311.046 984.238 298.675C989.645 294.257 994.965 289.617 1000.02 284.802C1002.99 281.974 1003.9 282.902 1004.38 286.304C1004.51 287.364 1004.73 288.38 1004.95 289.441C1008.92 307.025 1018.51 319.397 1036.82 322.357C1058.1 325.803 1077.33 320.148 1094.03 306.363C1100.88 300.707 1105.02 293.196 1106.41 284.271C1107.2 279.279 1107.81 273.844 1102.92 270.84C1098.3 267.968 1094.6 272.121 1090.54 274.109C1082.3 278.13 1074.06 282.769 1065.34 285.067C1054.31 287.939 1045.85 280.604 1044.63 269.073C1044.5 267.659 1044.45 266.245 1044.41 264.831C1044.06 242.298 1049.86 220.781 1054.96 199.131C1055.79 195.597 1058.32 195.597 1061.02 195.597C1071.49 195.597 1082 196.127 1092.42 195.42C1102.27 194.757 1112.21 193.653 1121.76 191.223C1131.61 188.704 1137.89 181.458 1140.07 171.031C1141.34 164.934 1137.46 159.941 1131.27 159.809C1122.02 159.632 1112.78 159.809 1103.53 159.72C1101.53 159.72 1099.52 159.279 1097.52 159.058C1098.91 157.6 1100.22 155.965 1101.75 154.684C1126.38 134.448 1145.57 110.236 1154.94 78.9986C1156.95 72.2829 1158.3 65.3462 1160 58.5421C1159.87 54.3889 1159.74 50.4566 1159.61 46.2593C1157.34 39.4551 1156.03 32.3859 1149.45 27.4374ZM663.455 176.819C680.983 132.548 698.991 88.4979 725.414 48.6451C727.638 45.2873 730.036 41.8852 733.045 39.2784C735.312 37.2902 739.411 34.8601 741.329 35.7438C743.684 36.8042 745.602 38.9249 745.035 44.4036C742.812 59.6466 739.193 72.9014 733.175 86.0679C717.042 121.326 693.541 151.149 665.897 177.747C665.156 178.498 663.978 178.807 663.019 179.293C663.15 178.454 663.15 177.57 663.455 176.819ZM44.6489 241.723C48.4423 227.497 54.7647 214.728 65.4037 204.477C70.1564 199.882 75.7375 196.745 82.4959 196.304C89.2978 195.862 93.8325 199.838 93.9197 206.554C93.0041 216.23 88.0334 223.874 80.4902 229.882C70.8976 237.526 59.8226 242.121 48.1371 245.302C44.7797 246.23 43.6897 245.346 44.6489 241.723ZM237.415 197.673C227.866 220.383 218.579 243.226 208.638 265.759C205.15 273.668 199.656 280.516 192.069 285.111C189.322 286.79 186.139 287.629 183.13 288.866C175.195 288.204 170.965 284.492 170.834 276.672C170.791 272.519 171.532 268.233 172.666 264.168C179.991 237.173 193.726 214.639 218.1 200.192C223.07 197.231 229.131 196.083 234.712 194.271C237.939 193.299 238.549 194.978 237.415 197.673ZM479.191 362.475C467.157 388.322 456.125 414.831 436.199 435.906C433.845 438.425 430.923 440.634 427.871 442.18C421.418 445.45 416.316 441.694 416.883 430.87C418.496 427.202 420.851 420.089 424.557 413.859C435.545 395.435 451.46 381.606 467.985 368.484C471.125 365.965 474.395 363.579 477.621 361.193C478.101 360.84 478.842 360.752 479.409 360.531C479.365 361.193 479.453 361.945 479.191 362.475ZM749.919 242.386C754.366 226.48 760.994 211.812 774.511 201.694C778.522 198.69 783.754 197.32 786.152 196.259C796.181 196.304 800.454 201.517 799.146 208.896C797.576 217.688 792.693 224.404 786.022 229.838C776.473 237.57 765.398 242.209 753.712 245.302C751.358 245.877 748.785 246.495 749.919 242.386ZM1114.09 101.002C1103.71 120.309 1090.19 137.011 1072.88 150.354C1071.88 151.149 1070.57 151.458 1069.39 152.033C1069.57 150.884 1069.57 149.603 1069.96 148.542C1079.16 123.358 1088.84 98.3507 1102.88 75.4198C1105.98 70.3388 1109.51 65.3904 1113.56 61.1046C1115.53 59.0281 1119.49 57.2166 1121.98 57.7909C1122.76 57.9677 1123.37 58.9839 1123.94 60.2652C1125.34 63.5347 1125.73 67.2019 1125.03 70.6923C1122.81 81.5612 1119.19 91.5465 1114.09 101.002Z" fill="#EDEEF2" fill-opacity="0.56"/>
</svg>
