<svg width="712" height="293" viewBox="0 0 712 293" fill="none" xmlns="http://www.w3.org/2000/svg">
<path d="M705.523 16.8536C703.034 14.981 699.85 14.2211 696.745 14.3839C686.736 14.9538 678.975 20.1375 671.989 26.6781C653.791 43.776 642.791 66.0575 633.076 89.0446C632.3 90.8901 631.658 92.7627 630.962 94.6353C630.025 97.1593 628.848 98.2449 626.305 98.1363C623.415 98.0006 620.524 98.0006 617.634 98.1363C609.819 98.5434 603.129 108.666 606.126 116.021C606.768 117.595 609.177 118.952 611.024 119.414C613.78 120.119 616.751 120.038 619.641 120.065C621.755 120.092 622.13 120.906 621.702 122.888C619.748 131.572 617.955 140.257 616.055 148.941C615.868 149.756 615.6 150.733 615.038 151.221C607.304 157.707 599.516 164.14 591.701 170.517C590.309 171.657 588.596 172.444 586.991 173.258C586.402 173.557 585.626 173.448 584.957 173.503C584.983 172.878 584.983 172.254 585.037 171.63C585.305 167.233 586.455 162.674 585.626 158.494C584.448 152.415 581.022 146.689 578.748 140.935C577.784 138.52 576.499 136.267 575.081 134.123C571.816 129.184 571.843 124.136 574.466 119.387C576.714 115.316 579.363 111.489 581.718 107.499C584.796 102.262 582.361 97.5664 576.339 97.3493C566.677 96.9693 559.746 100.823 554.527 109.209C543.528 126.931 532.421 144.708 516.979 158.956C506.327 168.78 493.802 175.375 479.35 177.275C473.088 178.089 466.879 177.221 462.088 172.254C460.134 170.219 460.884 167.749 463.614 167.043C476.219 163.678 488.503 159.526 498.593 150.733C508.04 142.509 513.633 132.223 513.848 119.441C514.035 109.345 506.381 101.013 496.478 100.009C482.588 98.5977 470.572 103.211 459.786 111.652C451.329 118.247 444.772 126.497 440.169 136.24C438.724 139.28 436.77 140.42 433.719 140.392C426.547 140.338 419.401 140.474 412.229 140.284C408.75 140.202 405.94 141.288 403.611 143.812C401.925 145.63 400.239 147.449 398.66 149.348C395.529 153.175 394.298 157.49 394.351 162.565C394.646 183.137 393.254 203.573 388.544 223.629C387.42 228.46 385.573 233.128 383.994 237.823C383.7 238.719 383.245 239.75 382.549 240.32C381.318 241.351 379.846 242.111 378.454 242.98C377.972 241.514 376.955 240.021 377.116 238.61C378.267 227.619 379.337 216.6 381.023 205.69C384.315 184.467 388.731 163.488 395.368 143.052C395.93 141.315 396.974 139.768 398.366 138.601C418.197 121.775 437.038 103.971 452.587 82.8839C463.774 67.7401 473.007 51.4836 476.701 32.6759C477.718 27.5194 477.985 22.1458 477.851 16.8807C477.637 8.71177 474.105 2.41541 465.407 0.108558C463.64 0.0814184 461.901 0.0271395 460.134 0C443.461 3.8538 432.89 15.7138 423.228 28.5779C405.618 51.9721 392.719 78.0531 382.335 105.383C376.393 121.069 371.603 137.19 366.116 153.067C365.581 154.586 364.056 156.568 362.717 157.463C355.01 162.511 347.168 167.342 339.353 172.227C338.47 172.77 337.48 173.15 336.543 173.584C336.757 172.58 336.811 171.521 337.159 170.544C344.037 151.954 350.969 133.363 357.847 114.773C358.89 111.923 359.881 109.046 360.657 106.115C361.647 102.316 360.443 100.389 356.696 99.9818C345.241 98.6791 340.156 102.587 335.5 111.272C328.3 124.706 320.967 138.058 313.099 151.085C309.968 156.269 305.472 160.666 301.27 165.144C299.611 166.908 297.282 169.269 294.552 167.695C291.662 166.012 292.492 162.728 293.375 160.313C298.272 146.77 303.357 133.336 308.496 119.902C310.209 115.451 312.43 111.19 314.063 106.712C315.32 103.32 313.42 100.307 309.888 99.9547C299.53 98.9505 292.947 101.556 288.156 110.132C279.993 124.733 273.57 140.067 269.235 156.296C268.673 158.44 267.335 160.828 265.648 162.158C260.59 166.148 255.211 169.676 249.885 173.313C249.35 173.665 248.52 173.584 247.824 173.72C247.824 173.204 247.691 172.634 247.851 172.173C251.357 161.833 247.691 152.768 243.007 143.893C241.482 141.017 239.929 138.167 238.324 135.372C234.63 128.994 234.951 122.806 238.859 116.645C241.241 112.9 243.756 109.236 245.817 105.355C248.547 100.226 247.209 98.0278 241.455 97.5121C231.258 96.6436 223.39 99.819 217.529 109.101C209.339 122.046 200.695 134.775 191.167 146.743C184.37 155.292 175.993 162.593 168.017 170.11C165.609 172.39 162.263 173.855 159.105 175.022C155.814 176.244 153.271 174.29 153.512 170.762C153.699 168.102 154.288 165.388 155.225 162.891C160.096 149.566 165.154 136.322 170.078 122.996C171.122 120.146 172.112 117.27 172.835 114.339C173.798 110.322 172.407 107.798 168.446 107.201C165.1 106.685 161.621 106.848 158.222 107.038C156.509 107.147 155.145 105.871 154.743 104.188C154.074 101.366 151.424 99.4661 148.534 99.3576C138.605 99.0591 129.532 102.126 121.182 107.174C101.003 119.359 87.2738 136.783 80.3154 159.634C79.8069 161.317 78.2547 163.57 76.8095 164.574C67.8172 170.816 58.1825 175.782 47.2097 177.194C40.7331 178.008 34.2833 177.574 29.2518 172.444C26.0671 169.187 26.3615 168.129 30.59 167.016C39.8499 164.628 48.869 161.507 57.1655 156.649C70.1188 149.05 78.5491 138.221 80.6634 122.833C82.3494 110.485 75.177 101.122 63.0266 99.9818C47.3703 98.4891 34.2833 104.46 22.9893 114.854C10.839 126.009 3.34536 139.823 0.401443 155.998C0.133814 158.033 0 160.15 0 162.267V168.156C0 172.173 0.562021 176.244 2.08751 179.962C5.48639 188.212 11.963 193.694 21.2497 196.598C29.4124 199.149 37.7624 199.014 46.0857 198.064C57.1388 196.815 67.1213 192.365 76.5419 186.53C78.7364 185.173 79.7267 185.091 80.9578 187.588C83.5805 192.962 88.3175 197.06 94.1519 198.064C99.8256 199.041 105.526 198.905 111.039 196.788C117.703 194.237 123.136 189.922 128.034 184.793C130.844 181.834 130.817 181.807 132.102 185.661C135.019 194.509 140.773 198.661 149.926 198.471C156.376 198.335 161.942 195.54 167.241 192.175C183.031 182.106 195.744 168.672 207.439 154.125C212.845 147.422 212.792 147.259 216.753 154.885C219.429 160.014 221.302 165.388 221.035 171.386C220.928 173.665 220.018 174.561 217.85 174.181C217.101 174.045 216.378 173.91 215.629 173.801C209.018 172.797 202.515 172.661 196.948 177.166C192.184 181.02 189.535 186.014 190.926 192.283C193.175 202.433 204.094 204.116 215.093 202.868C219.59 202.352 223.818 200.588 227.752 198.308C229.947 197.06 232.57 196.164 235.085 195.974C245.228 195.16 254.702 192.5 263.052 186.502C265.488 184.766 266.264 185.227 267.094 187.507C269.342 193.613 274.748 198.172 281.144 198.525C286.657 198.851 291.207 196.625 295.409 193.613C302.153 188.782 307.292 182.432 311.467 175.24C311.734 174.805 312.136 174.452 312.484 174.045C312.457 174.561 312.51 175.077 312.376 175.538C311.707 177.601 310.744 179.582 310.262 181.726C308.068 191.388 302.153 197.494 293.964 202.84C277.317 213.75 261.714 226.18 248.734 241.596C241.375 250.334 236.049 260.105 234.202 271.612C232.329 283.173 239.662 292.292 251.143 292.943C258.556 293.351 265.354 291.559 271.643 287.597C281.224 281.545 288.183 272.942 294.419 263.633C307.131 244.689 316.498 223.982 325.089 202.868C325.704 201.375 326.802 199.719 328.113 198.905C337.614 193.043 347.249 187.371 356.856 181.672C357.552 181.265 358.409 181.129 359.212 180.857C359.212 181.672 359.292 182.513 359.158 183.327C357.124 197.385 354.742 211.389 353.11 225.475C352.039 234.756 352.093 244.147 355.251 253.157C357.74 260.295 363.949 264.501 370.746 263.904C377.196 263.361 382.656 260.729 387.366 256.251C397.697 246.426 402.3 233.644 405.351 220.182C409.392 202.352 410.971 184.196 411.239 165.931C411.265 163.217 411.988 162.565 414.985 163.081C419.669 163.922 424.406 164.139 429.17 164.139C431.792 164.139 432.381 164.954 432.622 167.722C434.067 185.281 442.792 195.024 460.027 197.792C470.947 199.556 481.839 198.769 492.303 194.861C512.028 187.479 526.72 174.48 541.387 155.808C543.554 153.067 544.866 151.33 546.793 149.538C547.542 148.833 548.907 146.689 550.459 149.24C554.367 155.753 558.113 162.348 557.765 170.409C557.605 174.208 557.337 174.507 553.59 173.937C548.372 173.123 543.18 172.688 538.095 174.67C531.618 177.194 526.935 184.223 527.497 190.6C528.032 196.843 533.117 201.565 540.637 202.813C549.148 204.225 557.043 202.515 564.59 198.335C566.972 197.005 569.568 196.137 572.271 195.92C584.127 194.97 594.832 191.062 604.119 183.463C607.437 180.749 610.702 177.899 613.807 174.941C615.627 173.204 616.189 173.774 616.483 175.864C616.564 176.515 616.697 177.139 616.831 177.791C619.267 188.592 625.154 196.191 636.395 198.01C649.455 200.126 661.258 196.653 671.508 188.185C675.71 184.711 678.252 180.097 679.108 174.615C679.59 171.549 679.965 168.21 676.967 166.365C674.13 164.601 671.856 167.152 669.367 168.373C664.309 170.843 659.25 173.693 653.898 175.104C647.127 176.868 641.935 172.363 641.185 165.279C641.105 164.411 641.078 163.542 641.052 162.674C640.837 148.833 644.397 135.616 647.528 122.318C648.037 120.146 649.589 120.146 651.248 120.146C657.671 120.146 664.121 120.472 670.518 120.038C676.566 119.631 682.668 118.952 688.529 117.46C694.577 115.913 698.431 111.462 699.769 105.057C700.545 101.312 698.164 98.2449 694.363 98.1635C688.69 98.0549 683.016 98.1635 677.342 98.1092C676.111 98.1092 674.88 97.8378 673.649 97.7021C674.505 96.8065 675.308 95.8023 676.245 95.0153C691.366 82.5854 703.141 67.713 708.896 48.5254C710.127 44.4002 710.956 40.1393 712 35.9598C711.92 33.4087 711.839 30.9933 711.759 28.415C710.367 24.2355 709.565 19.8932 705.523 16.8536ZM407.224 108.612C417.983 81.4184 429.036 54.3604 445.254 29.8806C446.619 27.818 448.091 25.7282 449.938 24.127C451.329 22.9057 453.845 21.413 455.023 21.9558C456.468 22.6072 457.645 23.9099 457.298 27.2752C455.933 36.6383 453.711 44.7801 450.018 52.8677C440.116 74.525 425.691 92.8441 408.723 109.182C408.268 109.643 407.545 109.833 406.957 110.132C407.037 109.616 407.037 109.074 407.224 108.612ZM27.4052 148.48C29.7336 139.741 33.6142 131.898 40.1443 125.601C43.0615 122.779 46.4871 120.852 50.6354 120.581C54.8104 120.309 57.5937 122.752 57.6473 126.877C57.0852 132.821 54.0343 137.516 49.4043 141.207C43.5165 145.902 36.7187 148.724 29.5462 150.678C27.4855 151.248 26.8164 150.705 27.4052 148.48ZM145.724 121.422C139.863 135.372 134.162 149.403 128.06 163.244C125.919 168.102 122.547 172.308 117.891 175.131C116.204 176.162 114.251 176.678 112.404 177.438C107.533 177.031 104.937 174.751 104.857 169.947C104.83 167.396 105.285 164.764 105.981 162.267C110.477 145.685 118.908 131.844 133.868 122.969C136.919 121.151 140.639 120.445 144.065 119.332C146.045 118.735 146.42 119.766 145.724 121.422ZM294.124 222.652C286.738 238.529 279.967 254.812 267.736 267.758C266.291 269.305 264.498 270.662 262.624 271.612C258.663 273.62 255.532 271.313 255.88 264.664C256.87 262.411 258.315 258.042 260.59 254.215C267.335 242.898 277.103 234.404 287.246 226.343C289.173 224.796 291.18 223.331 293.161 221.865C293.455 221.648 293.91 221.594 294.258 221.458C294.231 221.865 294.285 222.327 294.124 222.652ZM460.295 148.887C463.025 139.117 467.093 130.107 475.389 123.892C477.851 122.046 481.063 121.205 482.535 120.554C488.69 120.581 491.313 123.783 490.51 128.315C489.547 133.716 486.549 137.841 482.455 141.18C476.594 145.929 469.796 148.779 462.623 150.678C461.178 151.031 459.599 151.411 460.295 148.887ZM683.819 62.0408C677.449 73.9008 669.153 84.1595 658.528 92.3556C657.912 92.8441 657.109 93.0341 656.387 93.3869C656.494 92.6813 656.494 91.8942 656.735 91.2429C662.382 75.7734 668.323 60.4125 676.941 46.3271C678.841 43.206 681.009 40.1664 683.497 37.5339C684.702 36.2583 687.137 35.1456 688.663 35.4984C689.144 35.607 689.519 36.2312 689.867 37.0182C690.723 39.0266 690.964 41.2791 690.536 43.4231C689.171 50.0995 686.95 56.233 683.819 62.0408Z" fill="#80C3F4"/>
</svg>
