<svg width="158" height="65" viewBox="0 0 158 65" fill="none" xmlns="http://www.w3.org/2000/svg">
<path d="M156.563 3.73886C156.01 3.32343 155.304 3.15485 154.615 3.19097C152.394 3.31741 150.671 4.46736 149.121 5.91835C145.083 9.71139 142.642 14.6544 140.486 19.7539C140.314 20.1633 140.171 20.5788 140.017 20.9942C139.809 21.5541 139.548 21.7949 138.983 21.7709C138.342 21.7407 137.701 21.7407 137.059 21.7709C135.325 21.8612 133.84 24.1069 134.505 25.7385C134.648 26.0877 135.183 26.3887 135.592 26.4911C136.204 26.6476 136.863 26.6296 137.505 26.6356C137.974 26.6416 138.057 26.8222 137.962 27.2617C137.528 29.1884 137.131 31.115 136.709 33.0416C136.667 33.2222 136.608 33.439 136.483 33.5473C134.767 34.9863 133.039 36.4132 131.304 37.8281C130.996 38.0809 130.615 38.2555 130.259 38.4362C130.128 38.5024 129.956 38.4783 129.808 38.4903C129.814 38.3519 129.814 38.2134 129.826 38.0749C129.885 37.0996 130.14 36.0881 129.956 35.1609C129.695 33.8123 128.935 32.5419 128.43 31.2655C128.216 30.7297 127.931 30.2299 127.616 29.7543C126.892 28.6585 126.898 27.5387 127.48 26.4851C127.979 25.582 128.567 24.733 129.089 23.848C129.772 22.686 129.232 21.6444 127.895 21.5963C125.751 21.512 124.213 22.3669 123.055 24.2273C120.614 28.1588 118.15 32.1024 114.723 35.2632C112.359 37.4427 109.58 38.9058 106.373 39.3272C104.983 39.5078 103.605 39.3152 102.542 38.2134C102.108 37.7618 102.275 37.214 102.881 37.0574C105.678 36.3108 108.404 35.3897 110.643 33.439C112.739 31.6147 113.98 29.3329 114.028 26.4971C114.07 24.2574 112.371 22.409 110.174 22.1863C107.091 21.8732 104.425 22.8967 102.031 24.7692C100.155 26.2322 98.6995 28.0625 97.678 30.2239C97.3573 30.8982 96.9238 31.1511 96.2467 31.1451C94.6551 31.133 93.0694 31.1631 91.4778 31.121C90.7057 31.1029 90.0821 31.3438 89.5654 31.9037C89.1913 32.3071 88.8171 32.7105 88.4667 33.1319C87.7718 33.9808 87.4986 34.9381 87.5105 36.064C87.5759 40.6277 87.267 45.1613 86.2218 49.6106C85.9723 50.6823 85.5625 51.7178 85.2121 52.7594C85.1468 52.9581 85.0459 53.1869 84.8914 53.3133C84.6183 53.5421 84.2916 53.7107 83.9828 53.9033C83.8759 53.5782 83.6502 53.2471 83.6858 52.934C83.9412 50.4956 84.1788 48.0512 84.5529 45.6309C85.2834 40.9227 86.2633 36.2687 87.7362 31.7351C87.8609 31.3498 88.0925 31.0066 88.4014 30.7477C92.8021 27.0149 96.9832 23.0653 100.434 18.3872C102.916 15.0277 104.965 11.4213 105.785 7.24892C106.01 6.10499 106.07 4.91289 106.04 3.74488C105.993 1.93264 105.209 0.535842 103.278 0.0240828C102.886 0.0180621 102.5 0.0060207 102.108 0C98.4085 0.85494 96.0626 3.48599 93.9187 6.3398C90.0108 11.5296 87.1483 17.3155 84.8439 23.3784C83.5255 26.8583 82.4624 30.4346 81.2449 33.9568C81.1262 34.2939 80.7876 34.7334 80.4907 34.9321C78.7803 36.052 77.0402 37.1236 75.306 38.2074C75.11 38.3278 74.8902 38.4121 74.6824 38.5084C74.7299 38.2856 74.7418 38.0508 74.819 37.8341C76.3453 33.7099 77.8835 29.5857 79.4098 25.4615C79.6414 24.8294 79.8612 24.1912 80.0334 23.5409C80.2531 22.698 79.9859 22.2706 79.1544 22.1803C76.6125 21.8913 75.4841 22.7583 74.4508 24.6849C72.8532 27.6651 71.2259 30.6273 69.4799 33.5172C68.785 34.6672 67.7873 35.6426 66.8548 36.636C66.4866 37.0273 65.9699 37.5511 65.3642 37.2019C64.7227 36.8286 64.9069 36.1001 65.1028 35.5643C66.1897 32.56 67.3181 29.5797 68.4584 26.5995C68.8384 25.6121 69.3314 24.6668 69.6937 23.6734C69.9728 22.9208 69.5511 22.2525 68.7672 22.1742C66.4688 21.9515 65.0078 22.5295 63.9447 24.432C62.1334 27.6711 60.708 31.0728 59.7459 34.6732C59.6212 35.1489 59.3242 35.6787 58.9501 35.9737C57.8276 36.8587 56.6339 37.6414 55.452 38.4482C55.3333 38.5265 55.1492 38.5084 54.9947 38.5385C54.9947 38.4241 54.965 38.2977 55.0007 38.1953C55.7787 35.9014 54.965 33.8905 53.9257 31.9218C53.5872 31.2836 53.2427 30.6514 52.8864 30.0313C52.0668 28.6164 52.1381 27.2437 53.0052 25.877C53.5338 25.0461 54.092 24.2333 54.5493 23.3724C55.1551 22.2344 54.8581 21.7468 53.5813 21.6324C51.3185 21.4397 49.5725 22.1441 48.2718 24.2032C46.4545 27.0751 44.5362 29.8988 42.422 32.5539C40.9135 34.4505 39.0546 36.07 37.2848 37.7378C36.7503 38.2435 36.0079 38.5686 35.3071 38.8275C34.5766 39.0984 34.0124 38.6649 34.0659 37.8822C34.1074 37.2922 34.2381 36.6902 34.4459 36.1362C35.5268 33.1801 36.6493 30.242 37.7421 27.2858C37.9737 26.6536 38.1934 26.0154 38.3538 25.3652C38.5676 24.4741 38.2588 23.9142 37.3798 23.7818C36.6374 23.6674 35.8654 23.7035 35.1111 23.7456C34.731 23.7697 34.4281 23.4868 34.3391 23.1135C34.1906 22.4873 33.6026 22.0659 32.9612 22.0418C30.7579 21.9756 28.7446 22.6559 26.8916 23.7758C22.4136 26.479 19.3669 30.3443 17.8228 35.4138C17.71 35.787 17.3655 36.2868 17.0448 36.5095C15.0493 37.8943 12.9113 38.9961 10.4763 39.3092C9.03909 39.4898 7.6078 39.3934 6.49128 38.2555C5.78454 37.5331 5.84987 37.2982 6.78823 37.0514C8.84311 36.5216 10.8445 35.8292 12.6856 34.7515C15.5601 33.0657 17.4308 30.6634 17.9 27.2497C18.2742 24.5103 16.6825 22.4331 13.9862 22.1803C10.512 21.8491 7.6078 23.1737 5.10156 25.4796C2.40528 27.9541 0.74237 31.0187 0.0890844 34.607C0.0296948 35.0585 0 35.5282 0 35.9978V37.3043C0 38.1953 0.124718 39.0984 0.463239 39.9233C1.21749 41.7536 2.65471 42.9697 4.71553 43.614C6.52691 44.1799 8.37987 44.1498 10.2269 43.9391C12.6797 43.6621 14.8949 42.6747 16.9854 41.3803C17.4724 41.0792 17.6922 41.0612 17.9653 41.6151C18.5474 42.8072 19.5986 43.7163 20.8932 43.9391C22.1523 44.1558 23.4173 44.1257 24.6407 43.6561C26.1195 43.0902 27.3251 42.1329 28.412 40.995C29.0356 40.3387 29.0296 40.3327 29.3147 41.1876C29.962 43.1504 31.2389 44.0715 33.27 44.0294C34.7013 43.9993 35.9366 43.3792 37.1125 42.6326C40.6165 40.3989 43.4375 37.4187 46.0329 34.1916C47.2325 32.7044 47.2206 32.6683 48.0996 34.3601C48.6935 35.4981 49.1092 36.6902 49.0498 38.0207C49.0261 38.5265 48.8242 38.7251 48.3431 38.6409C48.1768 38.6108 48.0165 38.5807 47.8502 38.5566C46.3833 38.3338 44.9401 38.3037 43.7048 39.3031C42.6476 40.1581 42.0597 41.2659 42.3685 42.6567C42.8674 44.9084 45.2905 45.2817 47.7314 45.0047C48.7291 44.8903 49.6675 44.499 50.5405 43.9933C51.0275 43.7163 51.6095 43.5176 52.1678 43.4755C54.4187 43.2949 56.5211 42.7048 58.374 41.3743C58.9145 40.9889 59.0867 41.0913 59.2708 41.597C59.7697 42.9517 60.9693 43.9632 62.3887 44.0414C63.6122 44.1137 64.6218 43.62 65.5542 42.9517C67.0508 41.88 68.1911 40.4712 69.1176 38.8757C69.177 38.7793 69.2661 38.7011 69.3433 38.6108C69.3373 38.7251 69.3492 38.8395 69.3195 38.9419C69.171 39.3995 68.9572 39.839 68.8503 40.3146C68.3633 42.458 67.0508 43.8126 65.2335 44.9987C61.5395 47.419 58.0771 50.1765 55.1967 53.5963C53.5634 55.5349 52.3816 57.7024 51.9718 60.2552C51.5561 62.82 53.1834 64.843 55.7312 64.9874C57.3763 65.0778 58.8848 64.6804 60.2804 63.8014C62.4066 62.4588 63.9507 60.5502 65.3345 58.4851C68.1555 54.2826 70.2341 49.6888 72.1405 45.0047C72.2771 44.6736 72.5206 44.3063 72.8116 44.1257C74.9199 42.8252 77.058 41.5669 79.19 40.3026C79.3445 40.2123 79.5345 40.1822 79.7127 40.122C79.7127 40.3026 79.7305 40.4892 79.7008 40.6698C79.2494 43.7886 78.7209 46.8952 78.3586 50.02C78.121 52.0791 78.1329 54.1622 78.8337 56.1611C79.386 57.7445 80.7639 58.6778 82.2724 58.5453C83.7037 58.4249 84.9152 57.8409 85.9605 56.8475C88.2529 54.668 89.2744 51.8322 89.9514 48.8459C90.8482 44.8903 91.1986 40.8625 91.258 36.8106C91.264 36.2085 91.4243 36.064 92.0895 36.1784C93.1288 36.365 94.18 36.4132 95.2371 36.4132C95.8191 36.4132 95.9498 36.5938 96.0032 37.2079C96.3239 41.1033 98.26 43.2648 102.085 43.8789C104.508 44.2702 106.925 44.0956 109.247 43.2286C113.624 41.591 116.885 38.7071 120.139 34.5648C120.62 33.9568 120.911 33.5714 121.339 33.1741C121.505 33.0175 121.808 32.5419 122.152 33.1078C123.02 34.5528 123.851 36.0158 123.774 37.804C123.738 38.6469 123.679 38.7131 122.847 38.5867C121.689 38.4061 120.537 38.3097 119.409 38.7492C117.971 39.3092 116.932 40.8685 117.057 42.2834C117.176 43.6681 118.304 44.7158 119.973 44.9927C121.861 45.3058 123.613 44.9265 125.288 43.9993C125.817 43.7043 126.393 43.5116 126.993 43.4634C129.624 43.2527 131.999 42.3857 134.06 40.6999C134.796 40.0979 135.521 39.4657 136.21 38.8094C136.614 38.4241 136.739 38.5506 136.804 39.0141C136.822 39.1586 136.851 39.2971 136.881 39.4416C137.422 41.8379 138.728 43.5236 141.222 43.927C144.121 44.3967 146.74 43.626 149.014 41.7475C149.947 40.9769 150.511 39.9534 150.701 38.7372C150.808 38.0569 150.891 37.3163 150.226 36.9069C149.596 36.5155 149.092 37.0815 148.539 37.3524C147.417 37.9003 146.294 38.5325 145.107 38.8456C143.604 39.2369 142.452 38.2375 142.286 36.6661C142.268 36.4734 142.262 36.2807 142.256 36.0881C142.208 33.0175 142.998 30.0854 143.693 27.1353C143.806 26.6536 144.15 26.6536 144.519 26.6536C145.944 26.6536 147.375 26.7259 148.795 26.6296C150.137 26.5392 151.491 26.3887 152.792 26.0576C154.134 25.7144 154.989 24.727 155.286 23.3061C155.458 22.4753 154.93 21.7949 154.086 21.7769C152.827 21.7528 151.568 21.7769 150.309 21.7648C150.036 21.7648 149.763 21.7046 149.489 21.6745C149.68 21.4758 149.858 21.2531 150.066 21.0785C153.421 18.321 156.034 15.0216 157.311 10.765C157.584 9.84987 157.768 8.90462 158 7.97743C157.982 7.41148 157.964 6.87564 157.947 6.30367C157.638 5.37649 157.46 4.41317 156.563 3.73886ZM90.3672 24.0948C92.7546 18.0621 95.2074 12.0595 98.8064 6.62879C99.1093 6.17122 99.4359 5.70762 99.8457 5.3524C100.155 5.08147 100.713 4.75033 100.974 4.87075C101.295 5.01524 101.556 5.30424 101.479 6.05081C101.176 8.12795 100.683 9.93416 99.8635 11.7283C97.6661 16.5328 94.465 20.5968 90.6997 24.2213C90.5988 24.3236 90.4384 24.3658 90.3078 24.432C90.3256 24.3176 90.3256 24.1972 90.3672 24.0948ZM6.08149 32.9393C6.59818 31.0006 7.45933 29.2606 8.90844 27.8638C9.55578 27.2376 10.316 26.8102 11.2365 26.75C12.163 26.6898 12.7806 27.2316 12.7925 28.1468C12.6678 29.4653 11.9908 30.5069 10.9633 31.3257C9.65674 32.3673 8.14825 32.9934 6.55661 33.4269C6.09931 33.5534 5.95083 33.433 6.08149 32.9393ZM32.3376 26.9366C31.037 30.0313 29.772 33.144 28.4179 36.2145C27.9428 37.2922 27.1945 38.2254 26.1611 38.8516C25.7869 39.0804 25.3534 39.1948 24.9436 39.3633C23.8627 39.273 23.2866 38.7673 23.2688 37.7016C23.2629 37.1357 23.3639 36.5517 23.5183 35.9978C24.516 32.3191 26.3868 29.2486 29.7067 27.2798C30.3837 26.8764 31.2092 26.7199 31.9694 26.473C32.4089 26.3406 32.492 26.5694 32.3376 26.9366ZM65.2691 49.3938C63.63 52.9159 62.1274 56.5284 59.4133 59.4002C59.0926 59.7434 58.6947 60.0445 58.279 60.2552C57.4 60.7007 56.7052 60.1889 56.7824 58.7139C57.0021 58.2142 57.3228 57.2448 57.8276 56.3959C59.3242 53.8853 61.492 52.0008 63.7428 50.2127C64.1704 49.8695 64.6158 49.5443 65.0553 49.2192C65.1207 49.1711 65.2216 49.159 65.2988 49.1289C65.2929 49.2192 65.3048 49.3216 65.2691 49.3938ZM102.144 33.0296C102.75 30.8621 103.653 28.8632 105.494 27.4845C106.04 27.0751 106.753 26.8884 107.079 26.744C108.445 26.75 109.027 27.4604 108.849 28.4659C108.635 29.664 107.97 30.5791 107.062 31.3197C105.761 32.3733 104.252 33.0055 102.661 33.4269C102.34 33.5052 101.99 33.5895 102.144 33.0296ZM151.746 13.7633C150.333 16.3944 148.492 18.6702 146.134 20.4884C145.997 20.5968 145.819 20.639 145.659 20.7172C145.683 20.5607 145.683 20.3861 145.736 20.2416C146.989 16.8098 148.308 13.4021 150.22 10.2773C150.642 9.58496 151.123 8.91064 151.675 8.32663C151.942 8.04366 152.483 7.79681 152.821 7.87508C152.928 7.89916 153.011 8.03764 153.088 8.21224C153.279 8.65777 153.332 9.15749 153.237 9.63312C152.934 11.1142 152.441 12.4749 151.746 13.7633Z" fill="white"/>
</svg>
