<svg width="163" height="68" viewBox="0 0 163 68" fill="none" xmlns="http://www.w3.org/2000/svg">
<path d="M161.517 3.91142C160.947 3.47682 160.218 3.30046 159.508 3.33825C157.216 3.47052 155.439 4.67355 153.84 6.1915C149.674 10.1596 147.156 15.3307 144.932 20.6656C144.754 21.0939 144.607 21.5285 144.448 21.9631C144.233 22.5489 143.964 22.8009 143.382 22.7757C142.72 22.7442 142.058 22.7442 141.397 22.7757C139.607 22.8701 138.076 25.2195 138.762 26.9264C138.909 27.2917 139.46 27.6067 139.883 27.7138C140.514 27.8775 141.194 27.8586 141.856 27.8649C142.34 27.8712 142.426 28.0602 142.328 28.52C141.881 30.5355 141.47 32.5511 141.035 34.5666C140.992 34.7556 140.931 34.9823 140.802 35.0957C139.032 36.601 137.249 38.0938 135.46 39.574C135.141 39.8385 134.749 40.0212 134.381 40.2101C134.246 40.2794 134.069 40.2542 133.916 40.2668C133.922 40.122 133.922 39.9771 133.934 39.8322C133.995 38.8118 134.259 37.7537 134.069 36.7837C133.799 35.3728 133.015 34.0438 132.494 32.7085C132.274 32.1479 131.98 31.6252 131.655 31.1276C130.907 29.9812 130.913 28.8097 131.514 27.7075C132.029 26.7627 132.635 25.8746 133.174 24.9487C133.879 23.733 133.321 22.6434 131.943 22.593C129.731 22.5048 128.144 23.3992 126.949 25.3455C124.431 29.4585 121.889 33.584 118.353 36.8908C115.915 39.1709 113.047 40.7014 109.739 41.1423C108.305 41.3313 106.884 41.1297 105.787 39.9771C105.34 39.5047 105.511 38.9315 106.136 38.7678C109.022 37.9867 111.834 37.023 114.144 34.9823C116.307 33.0738 117.587 30.6867 117.636 27.72C117.679 25.377 115.927 23.4433 113.66 23.2103C110.48 22.8827 107.729 23.9535 105.26 25.9124C103.324 27.4429 101.823 29.3577 100.769 31.6189C100.438 32.3243 99.991 32.5888 99.2925 32.5826C97.6505 32.57 96.0146 32.6014 94.3726 32.5574C93.5761 32.5385 92.9328 32.7904 92.3998 33.3762C92.0138 33.7982 91.6278 34.2202 91.2663 34.6611C90.5494 35.5492 90.2676 36.5507 90.2798 37.7285C90.3472 42.5028 90.0286 47.2456 88.9503 51.9003C88.693 53.0214 88.2702 54.1048 87.9087 55.1945C87.8413 55.4023 87.7372 55.6417 87.5779 55.7739C87.2961 56.0133 86.9591 56.1896 86.6405 56.3912C86.5302 56.0511 86.2974 55.7046 86.3341 55.3771C86.5976 52.8262 86.8427 50.269 87.2286 47.7369C87.9823 42.8114 88.9932 37.9426 90.5127 33.1998C90.6413 32.7967 90.8803 32.4377 91.1989 32.1668C95.7389 28.2617 100.052 24.1299 103.612 19.2359C106.173 15.7213 108.287 11.9484 109.132 7.58349C109.365 6.38676 109.426 5.13964 109.396 3.91772C109.347 2.02184 108.538 0.560574 106.547 0.0251943C106.142 0.0188957 105.744 0.00629858 105.34 0C101.523 0.894398 99.1026 3.64688 96.8908 6.6324C92.8593 12.0618 89.9061 18.1147 87.5289 24.4574C86.1687 28.098 85.072 31.8393 83.816 35.524C83.6934 35.8767 83.3442 36.3365 83.0378 36.5444C81.2733 37.7159 79.4781 38.837 77.6891 39.9708C77.4869 40.0968 77.2602 40.1849 77.0457 40.2857C77.0948 40.0527 77.107 39.807 77.1867 39.5803C78.7613 35.2657 80.3481 30.9512 81.9228 26.6367C82.1617 25.9753 82.3884 25.3077 82.5661 24.6274C82.7928 23.7456 82.5171 23.2984 81.6593 23.204C79.037 22.9016 77.8729 23.8086 76.8068 25.8242C75.1587 28.942 73.4799 32.0409 71.6786 35.0642C70.9617 36.2672 69.9324 37.2876 68.9705 38.3269C68.5906 38.7363 68.0576 39.2842 67.4326 38.9189C66.7709 38.5284 66.9609 37.7663 67.1631 37.2057C68.2843 34.0627 69.4484 30.9449 70.6248 27.8271C71.0169 26.7942 71.5254 25.8053 71.8991 24.766C72.1871 23.9787 71.7521 23.2796 70.9434 23.1977C68.5722 22.9646 67.065 23.5693 65.9683 25.5596C64.0996 28.9483 62.6291 32.507 61.6366 36.2735C61.5079 36.7711 61.2016 37.3254 60.8156 37.634C59.6576 38.5599 58.4261 39.3787 57.2069 40.2227C57.0843 40.3046 56.8944 40.2857 56.7351 40.3172C56.7351 40.1975 56.7044 40.0653 56.7412 39.9582C57.5438 37.5584 56.7044 35.4547 55.6322 33.3951C55.283 32.7274 54.9276 32.0661 54.56 31.4173C53.7145 29.9371 53.788 28.5011 54.6826 27.0713C55.2279 26.2021 55.8038 25.3518 56.2756 24.4511C56.9005 23.2607 56.5942 22.7505 55.2769 22.6308C52.9425 22.4292 51.1412 23.1662 49.7994 25.3203C47.9246 28.3247 45.9456 31.2787 43.7644 34.0564C42.2082 36.0405 40.2905 37.7348 38.4647 39.4795C37.9132 40.0086 37.1474 40.3487 36.4244 40.6195C35.6708 40.903 35.0887 40.4495 35.1439 39.6307C35.1868 39.0134 35.3216 38.3835 35.536 37.8041C36.6511 34.7115 37.8091 31.6378 38.9364 28.5452C39.1754 27.8838 39.4021 27.2162 39.5675 26.5359C39.7881 25.6037 39.4695 25.018 38.5627 24.8794C37.7968 24.7597 37.0003 24.7975 36.2222 24.8416C35.8301 24.8668 35.5176 24.5708 35.4257 24.1802C35.2726 23.5252 34.666 23.0843 34.0043 23.0591C31.7312 22.9898 29.6542 23.7016 27.7426 24.8731C23.1229 27.7012 19.9798 31.7448 18.3868 37.0482C18.2704 37.4388 17.9151 37.9615 17.5842 38.1946C15.5256 39.6433 13.3199 40.7959 10.8078 41.1234C9.32514 41.3124 7.84856 41.2116 6.6967 40.0212C5.9676 39.2653 6.035 39.0197 7.00305 38.7615C9.12295 38.2072 11.1877 37.4828 13.0871 36.3554C16.0525 34.5918 17.9824 32.0787 18.4665 28.5074C18.8525 25.6415 17.2105 23.4685 14.4288 23.204C10.8446 22.8575 7.84856 24.2432 5.26301 26.6556C2.48139 29.2443 0.765862 32.4503 0.0919035 36.2042C0.0306345 36.6766 0 37.1679 0 37.6592V39.026C0 39.9582 0.128665 40.903 0.477898 41.7659C1.25601 43.6806 2.73872 44.953 4.86476 45.6269C6.73346 46.219 8.64505 46.1875 10.5505 45.967C13.0809 45.6773 15.3663 44.6443 17.5229 43.2901C18.0253 42.9752 18.252 42.9563 18.5339 43.5358C19.1343 44.7829 20.2188 45.734 21.5544 45.967C22.8533 46.1938 24.1584 46.1623 25.4205 45.671C26.9461 45.0789 28.1899 44.0775 29.3111 42.887C29.9544 42.2005 29.9483 42.1942 30.2424 43.0886C30.9102 45.1419 32.2275 46.1056 34.3229 46.0615C35.7995 46.03 37.0739 45.3813 38.287 44.6002C41.9019 42.2635 44.8121 39.1457 47.4896 35.7696C48.7272 34.2139 48.715 34.1761 49.6217 35.946C50.2344 37.1364 50.6633 38.3835 50.6021 39.7755C50.5775 40.3046 50.3692 40.5125 49.8729 40.4243C49.7014 40.3928 49.536 40.3613 49.3644 40.3361C47.8511 40.1031 46.3622 40.0716 45.0878 41.1171C43.9973 42.0115 43.3907 43.1705 43.7093 44.6254C44.2239 46.9811 46.7237 47.3716 49.2419 47.0819C50.2712 46.9622 51.2392 46.5528 52.1399 46.0237C52.6423 45.734 53.2427 45.5261 53.8187 45.482C56.1408 45.2931 58.3097 44.6758 60.2213 43.2838C60.7788 42.8807 60.9565 42.9878 61.1464 43.5169C61.6611 44.9341 62.8987 45.9922 64.3631 46.0741C65.6252 46.1497 66.6668 45.6332 67.6287 44.9341C69.1727 43.8129 70.349 42.3391 71.3048 40.6699C71.3661 40.5692 71.458 40.4873 71.5377 40.3928C71.5315 40.5125 71.5438 40.6321 71.5132 40.7392C71.36 41.2179 71.1394 41.6777 71.0291 42.1753C70.5267 44.4176 69.1727 45.8348 67.2978 47.0756C63.4869 49.6076 59.9149 52.4924 56.9434 56.07C55.2585 58.0981 54.0392 60.3656 53.6165 63.0362C53.1876 65.7194 54.8664 67.8357 57.4948 67.9869C59.192 68.0814 60.7482 67.6656 62.188 66.746C64.3814 65.3415 65.9744 63.3448 67.402 61.1844C70.3123 56.788 72.4567 51.9822 74.4234 47.0819C74.5643 46.7355 74.8156 46.3512 75.1158 46.1623C77.2908 44.8018 79.4965 43.4854 81.6961 42.1627C81.8554 42.0682 82.0514 42.0367 82.2352 41.9737C82.2352 42.1627 82.2536 42.3579 82.223 42.5469C81.7573 45.8096 81.212 49.0596 80.8383 52.3286C80.5932 54.4827 80.6055 56.662 81.3285 58.7532C81.8983 60.4097 83.3197 61.386 84.8759 61.2474C86.3525 61.1214 87.6024 60.5105 88.6807 59.4712C91.0457 57.1911 92.0995 54.2245 92.798 51.1004C93.7232 46.9622 94.0847 42.7485 94.1459 38.5095C94.1521 37.8797 94.3175 37.7285 95.0037 37.8482C96.0759 38.0434 97.1603 38.0938 98.2509 38.0938C98.8514 38.0938 98.9862 38.2828 99.0413 38.9252C99.3722 43.0004 101.37 45.2616 105.315 45.904C107.815 46.3135 110.309 46.1308 112.704 45.2238C117.22 43.5106 120.583 40.4936 123.941 36.1601C124.437 35.524 124.738 35.1209 125.179 34.7052C125.35 34.5414 125.663 34.0438 126.018 34.6359C126.913 36.1476 127.77 37.6781 127.691 39.5488C127.654 40.4306 127.593 40.4999 126.735 40.3676C125.54 40.1786 124.352 40.0779 123.187 40.5377C121.705 41.1234 120.632 42.7548 120.761 44.2349C120.884 45.6836 122.048 46.7796 123.769 47.0693C125.718 47.3968 127.525 47 129.253 46.03C129.798 45.7214 130.393 45.5198 131.011 45.4694C133.726 45.249 136.176 44.342 138.302 42.5784C139.062 41.9485 139.81 41.2872 140.52 40.6006C140.937 40.1975 141.066 40.3298 141.133 40.8148C141.151 40.966 141.182 41.1108 141.213 41.262C141.77 43.7688 143.118 45.5324 145.692 45.9544C148.681 46.4457 151.383 45.6395 153.73 43.6743C154.692 42.8681 155.274 41.7974 155.47 40.5251C155.58 39.8133 155.666 39.0386 154.98 38.6103C154.33 38.2009 153.81 38.793 153.24 39.0764C152.082 39.6496 150.924 40.3109 149.699 40.6384C148.148 41.0478 146.96 40.0023 146.788 38.3584C146.77 38.1568 146.764 37.9552 146.758 37.7537C146.709 34.5414 147.523 31.474 148.24 28.3877C148.357 27.8838 148.712 27.8838 149.092 27.8838C150.562 27.8838 152.039 27.9594 153.503 27.8586C154.888 27.7641 156.285 27.6067 157.627 27.2603C159.011 26.9012 159.894 25.8683 160.2 24.3818C160.378 23.5126 159.832 22.8009 158.962 22.782C157.663 22.7568 156.365 22.782 155.066 22.7694C154.784 22.7694 154.502 22.7064 154.22 22.6749C154.416 22.467 154.6 22.234 154.814 22.0513C158.276 19.1666 160.972 15.715 162.289 11.2619C162.571 10.3045 162.761 9.3156 163 8.34562C162.982 7.75355 162.963 7.19298 162.945 6.59461C162.626 5.62463 162.442 4.61686 161.517 3.91142ZM93.2269 25.2069C95.6899 18.8957 98.2203 12.6161 101.933 6.93474C102.246 6.45604 102.583 5.97105 103.005 5.59944C103.324 5.316 103.9 4.96958 104.17 5.09555C104.5 5.24672 104.77 5.54905 104.69 6.33007C104.378 8.50308 103.869 10.3927 103.024 12.2696C100.757 17.2959 97.4544 21.5474 93.57 25.3392C93.4658 25.4463 93.3004 25.4904 93.1656 25.5596C93.184 25.44 93.184 25.314 93.2269 25.2069ZM6.27394 34.4595C6.80698 32.4314 7.69538 30.6111 9.19035 29.1498C9.85818 28.4948 10.6424 28.0476 11.5921 27.9846C12.5479 27.9216 13.1851 28.4885 13.1973 29.4459C13.0687 30.8252 12.3702 31.9149 11.3103 32.7715C9.96234 33.8612 8.4061 34.5162 6.7641 34.9697C6.29232 35.102 6.13915 34.976 6.27394 34.4595ZM33.361 28.1798C32.0192 31.4173 30.7141 34.6737 29.3172 37.886C28.8271 39.0134 28.0551 39.9897 26.989 40.6447C26.603 40.8841 26.1557 41.0037 25.733 41.1801C24.6179 41.0856 24.0236 40.5566 24.0052 39.4417C23.9991 38.8496 24.1032 38.2387 24.2625 37.6592C25.2918 33.8108 27.2218 30.5985 30.6467 28.5389C31.3452 28.1169 32.1968 27.9531 32.9811 27.6949C33.4345 27.5563 33.5203 27.7956 33.361 28.1798ZM67.3346 51.6735C65.6436 55.3582 64.0935 59.1374 61.2935 62.1418C60.9626 62.5008 60.5521 62.8157 60.1233 63.0362C59.2165 63.5023 58.4996 62.9669 58.5793 61.4237C58.806 60.901 59.1368 59.8869 59.6576 58.9988C61.2016 56.3723 63.4379 54.4008 65.76 52.5302C66.2011 52.1711 66.6607 51.831 67.114 51.4909C67.1814 51.4405 67.2856 51.4279 67.3652 51.3964C67.3591 51.4909 67.3714 51.598 67.3346 51.6735ZM105.377 34.554C106.001 32.2865 106.933 30.1954 108.832 28.753C109.396 28.3247 110.131 28.1295 110.468 27.9783C111.877 27.9846 112.478 28.7278 112.294 29.7797C112.073 31.0331 111.387 31.9905 110.45 32.7652C109.108 33.8675 107.552 34.5288 105.91 34.9697C105.579 35.0516 105.217 35.1398 105.377 34.554ZM156.548 14.3986C155.09 17.151 153.191 19.5319 150.758 21.4341C150.618 21.5474 150.434 21.5915 150.268 21.6734C150.293 21.5096 150.293 21.327 150.348 21.1758C151.641 17.5856 153.001 14.0206 154.974 10.7517C155.409 10.0273 155.905 9.3219 156.475 8.71093C156.751 8.4149 157.308 8.15666 157.657 8.23854C157.768 8.26374 157.853 8.4086 157.933 8.59126C158.129 9.05736 158.184 9.58014 158.086 10.0777C157.774 11.6272 157.265 13.0507 156.548 14.3986Z" fill="#80C3F4"/>
</svg>
