<svg width="26" height="13" viewBox="0 0 26 13" fill="none" xmlns="http://www.w3.org/2000/svg">
<g filter="url(#filter0_b_6170_79040)">
<path fill-rule="evenodd" clip-rule="evenodd" d="M19.288 0.005792C19.2563 0.00944635 19.1564 0.020098 19.0659 0.0294715C17.2689 0.215466 15.5654 1.26322 14.5359 2.81568C13.6491 4.15271 13.3136 5.77575 13.6029 7.32827C14.009 9.50707 15.5716 11.3267 17.6752 12.0703C18.1107 12.2242 18.5569 12.3268 19.0576 12.3881C19.2856 12.416 20.1791 12.4161 20.3907 12.3883C21.2198 12.2791 21.8294 12.0977 22.5054 11.759C23.5969 11.2122 24.5072 10.3687 25.1311 9.32609C26.2726 7.41848 26.2904 5.12534 25.1786 3.19145C24.4752 1.96795 23.3318 0.968836 22.037 0.44651C21.5324 0.242915 21.0419 0.114095 20.473 0.0357806C20.2931 0.0110031 19.4319 -0.0107755 19.288 0.005792ZM0 6.19434V10.1396H0.913384H1.82677V8.94336V7.7471L2.20117 7.74762L2.57558 7.74815L2.81609 8.11224C2.94837 8.31249 3.30362 8.84688 3.60553 9.29979L4.15446 10.1232L5.04367 10.1225L5.93288 10.1218L6.04602 10.0159L6.15917 9.90988L6.03643 9.7175C5.96892 9.61168 5.61004 9.05316 5.23891 8.47633C4.86778 7.8995 4.55509 7.41067 4.54404 7.39005C4.52005 7.34527 4.51521 7.35238 4.74871 7.08936C5.02387 6.77942 5.15109 6.59719 5.29052 6.31322C5.49615 5.89436 5.59471 5.4754 5.59506 5.01863C5.59564 4.28382 5.38768 3.66055 4.98966 3.20409C4.58338 2.73816 3.93206 2.41561 3.15659 2.29628C2.97098 2.26772 2.60665 2.26061 0.950413 2.25327L0 2.24905V6.19434ZM6.82981 6.19434V10.1396H7.74319H8.65657V8.94336V7.7471H9.02657H9.39656L9.83564 8.40668C10.0771 8.76946 10.433 9.3041 10.6264 9.59476L10.9781 10.1232H11.87H12.7619L12.8714 10.015L12.9809 9.90675L12.7966 9.61762C12.6952 9.45858 12.5455 9.22522 12.464 9.09904C12.3825 8.97286 12.2043 8.69633 12.0682 8.48452C11.932 8.27272 11.7125 7.93142 11.5805 7.72607L11.3403 7.35274L11.496 7.17903C11.8324 6.8036 11.9651 6.61631 12.1211 6.29683C12.3561 5.81542 12.4565 5.28566 12.4117 4.7643C12.3639 4.20905 12.2279 3.78719 11.9732 3.40448C11.8606 3.23517 11.5468 2.9275 11.3647 2.80765C11.025 2.58414 10.6154 2.41968 10.1789 2.33145C9.85241 2.26546 9.74595 2.26198 7.78022 2.25327L6.82981 2.24905V6.19434ZM20.0804 2.30726C20.6249 2.36195 21.2104 2.55984 21.6656 2.84307C22.6336 3.44531 23.2651 4.4071 23.4545 5.5676C23.5032 5.86604 23.5073 6.49321 23.4624 6.78025C23.3309 7.62085 23.0081 8.31814 22.4742 8.91475C22.005 9.43893 21.3829 9.81824 20.7198 9.98435C20.4038 10.0635 20.243 10.081 19.8311 10.0813C19.4413 10.0816 19.2603 10.0643 18.976 9.99955C17.5106 9.66598 16.3823 8.51898 16.0957 7.07163C16.013 6.65381 15.9887 6.04497 16.0379 5.62592C16.1417 4.74248 16.516 3.98638 17.1482 3.38315C17.808 2.75358 18.608 2.37404 19.4279 2.30149C19.5777 2.28824 19.9211 2.29128 20.0804 2.30726ZM2.96955 4.05178C3.24419 4.0966 3.3599 4.15246 3.47428 4.29551C3.62102 4.47903 3.7063 4.735 3.70699 4.99404C3.70824 5.46436 3.45167 5.8189 3.03469 5.92305C2.93884 5.94699 2.83671 5.9515 2.37809 5.95204L1.835 5.9527L1.83072 5.01043C1.82838 4.49219 1.82999 4.05896 1.83432 4.04768C1.84635 4.01638 2.77315 4.01973 2.96955 4.05178ZM9.82732 4.05815C10.0651 4.10086 10.1512 4.14116 10.2643 4.26281C10.561 4.58176 10.6192 5.15978 10.3934 5.54349C10.3298 5.6516 10.1778 5.79141 10.0637 5.84674C9.86667 5.94229 9.81692 5.94871 9.21201 5.95676L8.65657 5.96414V4.99567V4.0272H9.15574C9.57333 4.0272 9.68307 4.03226 9.82732 4.05815Z" fill="#9ECDF6"/>
</g>
<defs>
<filter id="filter0_b_6170_79040" x="-2.95455" y="-2.95455" width="31.9091" height="18.3183" filterUnits="userSpaceOnUse" color-interpolation-filters="sRGB">
<feFlood flood-opacity="0" result="BackgroundImageFix"/>
<feGaussianBlur in="BackgroundImageFix" stdDeviation="1.47727"/>
<feComposite in2="SourceAlpha" operator="in" result="effect1_backgroundBlur_6170_79040"/>
<feBlend mode="normal" in="SourceGraphic" in2="effect1_backgroundBlur_6170_79040" result="shape"/>
</filter>
</defs>
</svg>
