<svg width="76" height="69" viewBox="0 0 76 69" fill="none" xmlns="http://www.w3.org/2000/svg">
<path d="M31.168 25.4426C31.0044 23.2434 31.4808 20.9665 32.7864 18.6431C40.5613 4.80361 65.7389 6.51714 74.798 18.3289C74.3545 18.8075 73.88 19.2441 73.4676 19.7646C67.0101 12.5079 54.5516 9.0406 45.0687 13.0619C39.6273 15.3612 35.2439 19.6769 35.4131 24.4908C43.9585 22.7067 55.2157 21.4465 61.1076 27.1736C64.9299 30.8637 65.3131 36.5966 60.5606 39.7834C54.2813 44.0052 37.5875 40.8288 31.6552 27.99C26.0034 29.5549 20.3521 31.9299 17.0335 33.9559C8.38078 39.1458 3.74297 47.8368 6.71274 56.576C5.78044 56.7526 4.84128 56.9648 3.92628 57.2546C-4.28573 42.0494 14.922 27.0525 31.168 25.4426ZM52.1431 38.0546C61.5233 38.8388 62.956 32.1926 59.0064 28.555C53.5968 23.5706 39.1342 26.4706 35.9382 27.0444C38.0199 31.2554 41.765 37.1783 52.1431 38.0546Z" fill="#80C3F4"/>
</svg>
