<svg width="123" height="109" viewBox="0 0 123 109" fill="none" xmlns="http://www.w3.org/2000/svg">
<path d="M74.0922 69.1164C74.615 72.8065 74.0668 76.6899 72.125 80.7321C60.561 104.809 17.8914 104.366 1.28218 85.3399C1.97664 84.4904 2.72814 83.7085 3.36558 82.7913C15.0745 94.3936 36.4824 99.0273 52.0297 91.33C60.9518 86.9268 67.8627 79.2284 67.0371 71.1325C52.8203 74.9685 33.9697 78.1851 23.3866 69.1056C16.5238 63.2581 15.2338 53.6341 22.8942 47.8023C33.0143 40.078 61.535 43.8105 72.9843 64.8708C82.344 61.6848 91.6116 57.1338 96.9832 53.3975C110.999 43.8114 117.848 28.7149 111.857 14.2757C113.41 13.8877 114.97 13.4389 116.482 12.8616C132.043 37.6884 101.32 64.8261 74.0922 69.1164ZM37.2895 49.8985C21.3761 49.4875 19.7049 60.827 26.7765 66.5737C36.4625 74.4483 60.537 68.1572 65.8646 66.88C61.8799 59.9856 54.8968 50.3678 37.2895 49.8985Z" fill="#FFD93B"/>
</svg>
