<svg width="85" height="77" viewBox="0 0 85 77" fill="none" xmlns="http://www.w3.org/2000/svg">
<path d="M36.2382 48.3965C34.0339 49.7513 31.4265 50.7385 28.3535 51.2183C10.0495 54.0774 -0.842881 36.8961 6.87868 24.3527C7.59953 24.3663 8.29237 24.4236 9.04124 24.3933C4.74636 32.6737 7.41253 42.6638 16.3674 46.4832C21.4974 48.6794 28.1913 49.0488 33.1115 46.2046C26.9549 41.7174 19.9778 35.1869 22.9669 28.1398C24.8797 23.5824 30.6478 20.0781 36.3538 21.3266C43.9046 22.9698 49.0051 35.5211 38.6417 46.6353C43.114 49.3843 48.4282 51.6726 52.2054 52.6577C61.9574 55.2787 73.3289 53.3257 80.921 46.448C81.5739 46.9479 82.2673 47.4319 83.0293 47.8562C71.3528 61.7825 46.0902 57.9397 36.2382 48.3965ZM38.7935 27.7276C34.8871 21.2436 27.2552 24.098 25.461 28.7074C23.0014 35.022 33.2971 42.6842 35.5025 44.4155C38.8332 40.6826 43.1065 34.9062 38.7935 27.7276Z" fill="#FFD93B"/>
</svg>
