<svg width="196" height="94" viewBox="0 0 196 94" fill="none" xmlns="http://www.w3.org/2000/svg">
<path d="M109.655 62.7568C108.79 68.0778 106.265 73.3508 101.774 78.2614C74.9005 107.582 15.096 90.1029 0.16486 56.8951C1.54748 56.0267 2.8543 55.1239 4.19765 54.1498C15.5536 75.0185 43.5658 89.8897 68.8784 85.2601C83.3584 82.5841 96.4383 74.4411 98.8696 62.7984C77.2574 62.599 49.2332 59.7622 38.3874 42.8153C31.3636 31.9038 33.7218 17.8552 47.071 12.6463C64.7696 5.71422 103.101 22.1784 109.975 56.3106C124.52 55.5096 139.527 52.7202 148.796 49.62C172.74 41.6467 188.986 23.1606 186.957 0.535889C189.371 0.573601 191.71 0.576915 194.045 0.403339C204.943 41.4532 149.888 67.5147 109.655 62.7568ZM66.433 21.4066C44.3084 14.5601 36.9148 29.8456 44.3522 40.6806C54.4888 55.549 91.1174 56.2151 99.2291 56.4579C96.5755 45.2388 90.9061 28.9642 66.433 21.4066Z" fill="#80C3F4"/>
</svg>
