<svg width="104" height="109" viewBox="0 0 104 109" fill="none" xmlns="http://www.w3.org/2000/svg">
<path d="M65.4137 40.8408C69.2273 39.8266 73.3955 39.7806 77.9277 41.0082C104.923 48.3175 110.478 88.0645 92.7796 106.234C91.7866 105.71 90.857 105.123 89.8007 104.661C100.37 92.1114 102.23 71.5385 91.9278 58.1806C86.0302 50.513 76.9452 45.1873 68.5333 47.1137C74.5806 59.7867 80.6294 76.8578 72.5584 87.9996C67.3669 95.2189 57.4108 97.7958 50.1863 91.5061C40.6212 83.1995 40.528 56.1405 61.0977 42.4788C56.4206 34.23 50.3185 26.2621 45.6245 21.8011C33.5483 10.1381 16.6786 5.92866 2.31348 13.5668C1.68556 12.1779 0.992541 10.7907 0.171144 9.46789C24.1283 -8.5569 57.0516 16.1321 65.4137 40.8408ZM50.363 77.8181C52.1759 92.6767 64.357 92.6084 69.4128 85.2092C76.3412 75.0742 66.3164 53.5847 64.219 48.8127C57.5186 53.5052 48.3725 61.3758 50.363 77.8181Z" fill="#FFD93B"/>
</svg>
