<svg width="117" height="120" viewBox="0 0 117 120" fill="none" xmlns="http://www.w3.org/2000/svg">
<path d="M69.6446 44.3721C73.2931 42.9386 77.4187 42.4277 82.07 43.1419C109.775 47.3931 120.431 86.2743 105.243 106.307C104.191 105.896 103.193 105.417 102.087 105.076C110.937 91.4242 110.115 70.771 98.172 58.6456C91.3328 51.6836 81.6377 47.4048 73.5495 50.2581C81.1858 62.1777 89.3933 78.4682 82.8371 90.4417C78.6269 98.1958 69.0924 101.868 61.1165 96.4233C50.5592 89.2356 46.9606 62.3545 65.5788 46.4816C59.874 38.8058 52.7932 31.5682 47.5625 27.6587C34.0814 17.4157 16.8148 15.1149 3.56594 24.309C2.76358 22.9988 1.89691 21.6975 0.911341 20.4746C22.3219 -0.112391 58.1544 20.7495 69.6446 44.3721ZM59.518 82.8003C63.2402 97.3647 75.3052 95.9373 79.3576 88.0197C84.9117 77.1742 72.1906 56.9364 69.4934 52.428C63.4601 57.8392 55.4144 66.6819 59.518 82.8003Z" fill="#80C3F4"/>
</svg>
