<svg width="20" height="15" viewBox="0 0 20 15" fill="none" xmlns="http://www.w3.org/2000/svg">
<path d="M19.5825 2.31359C19.4663 1.86788 19.2449 1.46191 18.9396 1.13499C18.6344 0.808079 18.2556 0.571296 17.8401 0.447572C16.2802 2.13969e-05 10.0095 2.1505e-05 10.0095 2.1505e-05C10.0095 2.1505e-05 3.75073 -0.0107145 2.17462 0.447572C1.75974 0.571839 1.38175 0.808871 1.07717 1.13576C0.772597 1.46264 0.551744 1.86832 0.435958 2.31359C0.139742 4.02745 -0.00614963 5.76733 0.00019855 7.51041C-0.00269177 9.24511 0.143176 10.9764 0.435958 12.6824C0.552118 13.1279 0.773037 13.5339 1.07751 13.8614C1.38197 14.1888 1.75977 14.4268 2.17462 14.5525C3.73447 15 10.0095 15 10.0095 15C10.0095 15 16.2646 15 17.8401 14.5525C18.2556 14.4274 18.6341 14.1896 18.9393 13.8621C19.2444 13.5346 19.4659 13.1284 19.5825 12.6824C19.8694 10.9774 20.0095 9.24358 19.9995 7.51041C20.0095 5.76584 19.8726 4.02932 19.5825 2.31359ZM8.00642 10.7224V4.28429L13.2261 7.51041L8.00642 10.7224Z" fill="#9ECDF6"/>
</svg>
